<svg width="469" height="96" viewBox="0 0 469 96" fill="none" xmlns="http://www.w3.org/2000/svg">
<g clip-path="url(#clip0)">
<path d="M461.076 105.551C457.804 104.569 454.44 103.526 451.963 102.452L451.474 102.237L451.413 101.715C451.199 99.5062 450.832 97.1436 450.373 94.5662L450.281 94.0446L450.679 93.707C452.819 91.8967 455.878 89.9023 458.813 87.9999C460.893 86.6498 463.034 85.2384 464.807 83.9497C464.288 81.9553 463.676 79.8995 462.942 77.6289C460.679 77.4754 458.079 77.4755 455.541 77.4448C452.116 77.4141 448.569 77.3834 445.847 77.0459L445.327 76.9845L445.113 76.4936C444.226 74.2844 443.217 72.0752 442.116 69.9273L441.871 69.4364L442.177 68.9761C443.706 66.6748 446.061 63.9133 448.293 61.2439C449.914 59.3415 451.596 57.3471 452.942 55.5981C451.841 53.7571 450.648 51.9161 449.394 50.0444C447.223 50.5353 444.715 51.241 442.299 51.9468C438.966 52.8979 435.541 53.8798 432.819 54.3401L432.299 54.4321L431.963 54.0025C430.464 52.1309 428.874 50.2898 427.253 48.5409L426.886 48.142L427.039 47.6204C427.865 44.9816 429.333 41.6984 430.74 38.5074C431.749 36.2061 432.819 33.8435 433.614 31.757C431.932 30.2842 430.25 28.8114 428.568 27.4306C426.611 28.5045 424.44 29.8853 422.299 31.2354C419.363 33.1071 416.336 35.0094 413.828 36.2061L413.339 36.4516L412.911 36.1447C410.923 34.7333 408.874 33.4139 406.855 32.2172L406.397 31.9411V31.4195C406.458 28.6579 406.947 25.1293 407.406 21.6928C407.742 19.1767 408.109 16.5686 408.262 14.3287C406.244 13.3162 404.256 12.3957 402.299 11.5672C400.739 13.1628 399.057 15.0958 397.406 16.9675C395.082 19.6063 392.696 22.3065 390.647 24.1781L390.25 24.5464L389.76 24.3929C387.344 23.5645 385.081 22.8894 382.849 22.3371L382.329 22.2144L382.176 21.6928C381.473 19.054 380.922 15.5561 380.402 12.1502C380.005 9.63415 379.607 7.02605 379.149 4.78615C376.855 4.38726 374.714 4.08043 372.665 3.83496C371.626 5.76802 370.555 8.09997 369.515 10.3399C368.017 13.531 366.488 16.8448 365.02 19.2381L364.745 19.6984L364.225 19.6677C361.809 19.5756 359.362 19.5756 356.946 19.6677L356.426 19.6984L356.151 19.2381C354.683 16.8448 353.124 13.531 351.656 10.3399C350.585 8.06929 349.515 5.76802 348.475 3.83496C346.426 4.08043 344.286 4.38726 341.961 4.78615C341.503 6.99537 341.105 9.60347 340.708 12.1502C340.188 15.5561 339.668 19.054 338.934 21.6928L338.812 22.1837L338.292 22.3065C336.059 22.8588 333.796 23.5338 331.38 24.3622L330.86 24.5464L330.463 24.1781C328.383 22.3065 325.998 19.6063 323.704 16.9675C322.053 15.0958 320.371 13.1628 318.811 11.5672C316.885 12.3957 314.927 13.2855 312.848 14.3287C313.031 16.5686 313.368 19.1767 313.704 21.6928C314.163 25.1293 314.652 28.6579 314.713 31.4195V31.9411L314.255 32.2172C312.206 33.4446 310.157 34.7333 308.199 36.1447L307.771 36.4516L307.282 36.2061C304.805 35.0094 301.747 33.0764 298.811 31.2354C296.701 29.8853 294.499 28.5045 292.542 27.4306C290.86 28.8114 289.208 30.2535 287.587 31.757C288.383 33.8435 289.453 36.2061 290.462 38.5074C291.869 41.6984 293.337 44.9816 294.163 47.6204L294.315 48.142L293.948 48.5409C292.297 50.3205 290.707 52.1615 289.239 54.0025L288.902 54.4321L288.383 54.3401C285.661 53.8798 282.236 52.8979 278.902 51.9468C276.486 51.241 273.979 50.5353 271.807 50.0444C270.554 51.8854 269.361 53.7571 268.229 55.5981C269.575 57.3777 271.257 59.3415 272.878 61.2439C275.141 63.9133 277.465 66.6442 278.994 68.9761L279.3 69.4057L279.055 69.8966C277.954 72.0752 276.945 74.2844 276.058 76.4629L275.844 76.9538L275.324 77.0152C272.603 77.3527 269.055 77.3834 265.63 77.4141C263.092 77.4448 260.462 77.4448 258.229 77.5982C257.495 79.8381 256.884 81.9246 256.364 83.919C258.137 85.2384 260.278 86.6191 262.358 87.9999C265.294 89.933 268.321 91.8967 270.462 93.707L270.859 94.0446L270.768 94.5662C270.278 97.1743 269.942 99.5062 269.728 101.715L269.667 102.237L269.177 102.452C266.7 103.526 263.336 104.538 260.064 105.551C257.618 106.287 255.079 107.054 252.939 107.852C252.908 109.018 252.877 110.123 252.877 111.197C252.877 112.332 252.908 113.437 252.969 114.541C255.11 115.339 257.648 116.106 260.095 116.842C263.336 117.824 266.7 118.868 269.208 119.911L269.697 120.126L269.758 120.647C269.973 122.856 270.339 125.219 270.798 127.796L270.89 128.318L270.462 128.717C268.321 130.497 265.294 132.491 262.358 134.424C260.278 135.774 258.137 137.186 256.364 138.505C256.884 140.499 257.495 142.555 258.229 144.826C260.492 144.979 263.092 144.979 265.63 145.01C269.055 145.041 272.633 145.071 275.324 145.409L275.844 145.47L276.058 145.961C276.945 148.14 277.954 150.349 279.055 152.527L279.3 153.018L278.994 153.448C277.465 155.749 275.11 158.511 272.847 161.18C271.226 163.083 269.575 165.046 268.229 166.826C269.33 168.667 270.523 170.508 271.777 172.349C273.948 171.858 276.456 171.152 278.872 170.447C282.205 169.495 285.63 168.514 288.352 168.053L288.872 167.961L289.208 168.391C290.707 170.262 292.297 172.103 293.918 173.852L294.285 174.251L294.132 174.773C293.306 177.412 291.838 180.695 290.432 183.886C289.422 186.187 288.352 188.55 287.557 190.636C289.178 192.14 290.86 193.582 292.511 194.963C294.468 193.889 296.64 192.508 298.75 191.158C301.686 189.286 304.744 187.384 307.221 186.187L307.71 185.942L308.138 186.249C310.126 187.629 312.175 188.949 314.193 190.176L314.652 190.452V190.974C314.591 193.735 314.102 197.264 313.643 200.701C313.307 203.217 312.94 205.825 312.756 208.065C314.805 209.077 316.762 209.998 318.719 210.826C320.279 209.231 321.961 207.298 323.613 205.426C325.937 202.787 328.322 200.087 330.371 198.215L330.769 197.847L331.258 198.031C333.704 198.86 335.967 199.535 338.169 200.087L338.812 200.21L338.964 200.731C339.668 203.37 340.218 206.899 340.738 210.274C341.136 212.79 341.533 215.398 341.992 217.607C344.316 218.006 346.457 218.344 348.506 218.558C349.546 216.625 350.616 214.324 351.656 212.084C353.154 208.893 354.683 205.549 356.151 203.186L356.426 202.726L356.946 202.756C359.362 202.848 361.809 202.848 364.225 202.756L364.745 202.726L365.02 203.186C366.488 205.579 368.017 208.893 369.515 212.084C370.555 214.324 371.626 216.625 372.665 218.589C374.714 218.344 376.855 218.037 379.179 217.638C379.638 215.429 380.035 212.821 380.433 210.305C380.953 206.899 381.473 203.401 382.207 200.762L382.329 200.21L382.849 200.087C385.081 199.535 387.344 198.86 389.76 198.031L390.25 197.847L390.647 198.215C392.727 200.087 395.112 202.787 397.406 205.426C399.057 207.298 400.739 209.231 402.299 210.826C404.256 209.998 406.213 209.108 408.262 208.065C408.079 205.825 407.742 203.217 407.406 200.731C406.947 197.295 406.458 193.766 406.397 191.005V190.483L406.855 190.207C408.904 188.979 410.953 187.66 412.911 186.279L413.339 185.972L413.828 186.218C416.305 187.415 419.363 189.348 422.299 191.189C424.409 192.539 426.611 193.919 428.568 194.993C430.25 193.613 431.902 192.171 433.523 190.667C432.727 188.581 431.657 186.218 430.648 183.917C429.241 180.726 427.773 177.442 426.947 174.804L426.795 174.282L427.162 173.883C428.813 172.103 430.403 170.262 431.902 168.421L432.238 167.992L432.758 168.084C435.48 168.544 438.905 169.526 442.238 170.477C444.654 171.183 447.162 171.889 449.333 172.38C450.587 170.539 451.78 168.698 452.881 166.826C451.535 165.046 449.884 163.083 448.263 161.18C446 158.511 443.676 155.749 442.147 153.448L441.841 152.988L442.085 152.497C443.186 150.318 444.195 148.109 445.082 145.93L445.296 145.439L445.816 145.378C448.538 145.041 452.086 145.01 455.511 144.979C458.049 144.949 460.679 144.949 462.911 144.795C463.645 142.555 464.257 140.469 464.777 138.474C463.003 137.155 460.862 135.774 458.783 134.393C455.847 132.46 452.819 130.466 450.679 128.686L450.281 128.349L450.373 127.827C450.862 125.219 451.199 122.887 451.413 120.678L451.474 120.156L451.963 119.941C454.44 118.868 457.804 117.855 461.076 116.873C463.523 116.137 466.061 115.37 468.202 114.572C468.233 113.467 468.294 112.332 468.294 111.227C468.294 110.123 468.263 108.987 468.202 107.883C466.061 107.054 463.523 106.287 461.076 105.551ZM388.873 38.1085L389.24 37.9244L389.607 38.0778C400.311 42.3428 410.128 49.1239 418.018 57.5925L419.21 58.8812L417.467 59.1267C403.063 61.0598 382.604 73.4866 371.167 84.3486L370.769 84.7475L370.249 84.5633C367.099 83.4281 363.858 82.8451 360.616 82.8451C359.821 82.8451 358.965 82.8758 357.986 82.9678L356.732 83.0905L357.008 81.8632C361.748 60.937 376.641 44.0304 388.873 38.1085ZM374.256 111.197C374.256 114.848 372.849 118.315 370.249 120.893C367.68 123.47 364.225 124.912 360.586 124.912C356.946 124.912 353.491 123.501 350.922 120.893C345.601 115.554 345.601 106.84 350.922 101.501C353.491 98.9232 356.946 97.4811 360.586 97.4811C364.225 97.4811 367.68 98.8926 370.249 101.501C372.818 104.109 374.256 107.545 374.256 111.197ZM329.087 39.4279L329.209 39.0597L329.576 38.9062C339.393 34.6719 349.821 32.5241 360.586 32.5241C361.534 32.5241 362.482 32.5548 363.43 32.5854L365.173 32.6468L364.102 34.0582C355.295 45.6259 349.576 68.9147 349.148 84.7475L349.118 85.2998L348.598 85.5452C344.806 87.3249 341.411 89.933 338.812 93.0934L338.016 94.0752L337.344 93.0013C325.967 74.806 324.591 52.2843 329.087 39.4279ZM287.71 82.078C291.991 71.3387 298.719 61.4893 307.16 53.573L308.444 52.3763L308.689 54.1253C310.615 68.5772 322.97 89.0738 333.827 100.58L334.224 100.979L334.041 101.501C332.909 104.661 332.328 107.914 332.328 111.166C332.328 112.056 332.389 112.915 332.451 113.805L332.573 115.063L331.35 114.787C310.493 110 293.643 95.0571 287.771 82.7837L287.587 82.4155L287.71 82.078ZM289.025 142.801L288.658 142.678L288.505 142.31C284.285 132.46 282.144 121.997 282.144 111.227C282.144 110.399 282.175 109.57 282.205 108.742L282.266 106.625L283.673 107.699C295.202 116.536 318.414 122.273 334.194 122.703L334.744 122.734L334.989 123.255C336.763 127.06 339.362 130.466 342.542 133.105L343.521 133.902L342.451 134.578C331.655 141.359 317.986 145.255 304.927 145.255C298.964 145.194 293.49 144.366 289.025 142.801ZM332.267 184.285L331.9 184.469L331.533 184.316C320.83 180.02 311.013 173.269 303.123 164.801L301.93 163.512L303.673 163.267C318.077 161.334 338.506 148.937 349.974 138.045L350.371 137.646L350.891 137.83C354.897 139.303 359.118 139.794 363.154 139.426L364.408 139.303L364.133 140.53C359.393 161.456 344.5 178.394 332.267 184.285ZM392.054 182.996L391.932 183.364L391.565 183.518C381.748 187.752 371.32 189.9 360.555 189.9C359.699 189.9 358.812 189.869 357.956 189.839L355.937 189.777L357.008 188.366C365.815 176.798 371.534 153.509 371.962 137.677L371.992 137.124L372.512 136.879C376.304 135.099 379.699 132.491 382.329 129.3L383.124 128.318L383.797 129.392C395.173 147.587 396.58 170.14 392.054 182.996ZM433.461 140.346C429.18 151.085 422.452 160.935 414.012 168.82L412.727 170.017L412.482 168.268C410.556 153.816 398.201 133.32 387.344 121.813L386.947 121.414L387.13 120.893C388.262 117.732 388.843 114.48 388.843 111.227C388.843 110.43 388.812 109.601 388.721 108.589L388.598 107.331L389.822 107.607C410.678 112.393 427.529 127.336 433.4 139.61L433.584 139.978L433.461 140.346ZM438.966 113.682L438.905 115.799L437.498 114.725C425.938 105.888 402.727 100.181 386.977 99.7517L386.427 99.721L386.182 99.1994C384.409 95.3946 381.809 91.9888 378.629 89.35L377.65 88.5522L378.72 87.8772C389.516 81.0961 403.186 77.1993 416.244 77.1993C422.177 77.1993 427.651 78.0278 432.085 79.5926L432.452 79.7154L432.605 80.0836C436.825 89.933 438.966 100.396 438.966 111.197C439.027 112.056 438.997 112.854 438.966 113.682Z" fill="#F7C781"/>
</g>
<g clip-path="url(#clip1)">
<path d="M258.518 109.433C257.743 109.155 256.851 108.877 256.002 108.614C255.139 108.336 254.262 108.073 253.487 107.795L253.194 107.693L253.179 107.385C253.077 105.864 252.931 104.489 252.726 103.187L252.682 102.88L252.945 102.719C253.662 102.265 254.467 101.797 255.271 101.329C256.032 100.89 256.807 100.437 257.48 100.012C257.29 99.0177 257.07 98.0961 256.851 97.2037C256.032 97.1013 255.11 97.0282 254.218 96.9697C253.311 96.8965 252.404 96.8234 251.57 96.7356L251.263 96.7063L251.175 96.4138C250.781 95.1264 250.313 93.7806 249.771 92.4347L249.654 92.1422L249.874 91.9227C250.473 91.3229 251.146 90.6793 251.834 90.0502C252.477 89.4505 253.135 88.836 253.706 88.2655C253.311 87.3878 252.887 86.5101 252.448 85.6762C251.629 85.764 250.722 85.8957 249.83 86.0273C248.923 86.159 248.016 86.2906 247.197 86.393L246.89 86.4223L246.729 86.1443C246.012 84.9009 245.266 83.7013 244.491 82.5749L244.315 82.3116L244.476 82.0483C244.915 81.3315 245.442 80.5561 245.968 79.7808C246.466 79.0494 246.963 78.3033 247.402 77.6158C246.875 76.9136 246.29 76.1968 245.588 75.3775C244.813 75.6409 243.979 75.9773 243.16 76.2845C242.297 76.621 241.434 76.9575 240.63 77.2354L240.337 77.3378L240.132 77.1037C239.181 76.0797 238.187 75.0703 237.148 74.1195L236.914 73.9147L237.017 73.6221C237.295 72.8321 237.631 71.969 237.967 71.1059C238.289 70.2867 238.611 69.4383 238.889 68.6776C238.041 67.9169 237.309 67.3317 236.622 66.7904C235.934 67.2147 235.174 67.7267 234.442 68.2241C233.667 68.7507 232.907 69.2627 232.175 69.7162L231.912 69.8771L231.649 69.7016C230.522 68.9262 229.323 68.1802 228.08 67.4634L227.802 67.3025L227.831 66.9952C227.919 66.1614 228.05 65.2544 228.197 64.3328C228.328 63.4551 228.46 62.5481 228.548 61.7289C227.699 61.29 226.822 60.8658 225.944 60.4708C225.374 61.0413 224.759 61.6996 224.16 62.3287C223.516 63.0162 222.887 63.6891 222.273 64.2889L222.053 64.5084L221.761 64.3913C220.415 63.8501 219.07 63.3819 217.782 62.987L217.475 62.8992L217.446 62.592C217.344 61.7728 217.285 60.8512 217.212 59.9442C217.139 59.0518 217.066 58.1302 216.978 57.311C216.086 57.0916 215.164 56.8721 214.17 56.6819C213.745 57.3695 213.292 58.1448 212.853 58.8909C212.385 59.6955 211.917 60.5147 211.464 61.2315L211.303 61.4948L210.995 61.4509C209.708 61.2461 208.333 61.0998 206.798 60.9974L206.49 60.9828L206.388 60.6902C206.11 59.9149 205.847 59.0372 205.569 58.1741C205.306 57.311 205.028 56.4333 204.75 55.6579H204.706C203.755 55.6287 202.804 55.6287 201.854 55.6579H201.81C201.532 56.4479 201.254 57.3256 200.991 58.1887C200.713 59.0518 200.45 59.9149 200.172 60.7049L200.069 60.9974L199.762 61.0121C198.241 61.1145 196.866 61.2608 195.564 61.4656L195.272 61.5094L195.111 61.2461C194.657 60.5293 194.189 59.7101 193.707 58.9055C193.268 58.1595 192.829 57.3841 192.39 56.6966C191.396 56.9014 190.474 57.1062 189.582 57.3256C189.479 58.1448 189.421 59.0664 189.348 59.9442C189.275 60.8512 189.201 61.7728 189.114 62.6066L189.084 62.9138L188.792 63.0016C187.505 63.3966 186.159 63.8647 184.813 64.406L184.521 64.523L184.301 64.3035C183.702 63.7038 183.058 63.0162 182.415 62.3433C181.815 61.6996 181.201 61.056 180.63 60.4854C179.753 60.8804 178.875 61.3046 178.027 61.7435C178.114 62.5627 178.246 63.4697 178.378 64.3328C178.509 65.2398 178.641 66.1614 178.743 66.9952L178.773 67.3025L178.495 67.4634C177.237 68.1802 176.037 68.9409 174.926 69.7016L174.662 69.8771L174.399 69.7162C173.682 69.2773 172.922 68.7507 172.147 68.2387C171.415 67.7413 170.655 67.2293 169.967 66.8051C169.28 67.3317 168.548 67.9169 167.729 68.619C167.993 69.3944 168.329 70.2428 168.651 71.0621C168.987 71.9252 169.324 72.7883 169.587 73.5782L169.689 73.8708L169.455 74.0902C168.417 75.0411 167.422 76.0505 166.471 77.0745L166.267 77.3085L165.974 77.2061C165.184 76.9282 164.321 76.6064 163.473 76.2699C162.654 75.9481 161.791 75.6116 161.03 75.3483C160.313 76.1382 159.728 76.8697 159.202 77.5572C159.641 78.2448 160.138 79.0055 160.635 79.7369C161.147 80.4976 161.674 81.273 162.113 81.9898L162.273 82.2531L162.098 82.5164C161.323 83.6428 160.577 84.8424 159.86 86.0858L159.699 86.3638L159.392 86.3345C158.558 86.2467 157.651 86.1151 156.744 85.9688C155.867 85.8371 154.96 85.7055 154.141 85.6177C153.702 86.4662 153.278 87.3439 152.883 88.207C153.453 88.7775 154.112 89.3919 154.755 89.9917C155.443 90.6354 156.116 91.2644 156.715 91.8642L156.935 92.0836L156.818 92.3762C156.276 93.7221 155.808 95.0679 155.413 96.3552L155.34 96.6771L155.033 96.7063C154.214 96.8087 153.307 96.8673 152.386 96.9404C151.493 97.0135 150.572 97.0867 149.753 97.1745C149.533 98.0668 149.314 98.9884 149.124 99.9832C149.811 100.407 150.587 100.861 151.333 101.3C152.137 101.768 152.941 102.236 153.673 102.69L153.936 102.85L153.878 103.172C153.673 104.474 153.527 105.849 153.424 107.371L153.41 107.678L153.117 107.78C152.342 108.058 151.464 108.336 150.601 108.6C149.753 108.863 148.861 109.141 148.085 109.419V109.507C148.041 109.975 148.027 110.428 148.027 110.896C148.027 111.35 148.041 111.818 148.056 112.271V112.359C148.846 112.637 149.724 112.915 150.587 113.178C151.45 113.456 152.313 113.72 153.102 113.998L153.395 114.1L153.41 114.407C153.512 115.929 153.658 117.304 153.863 118.606L153.907 118.913L153.644 119.074C152.927 119.527 152.122 119.995 151.318 120.464C150.557 120.902 149.782 121.356 149.109 121.78C149.314 122.775 149.519 123.696 149.738 124.589C150.557 124.691 151.464 124.75 152.356 124.823C153.278 124.896 154.185 124.969 155.018 125.072L155.34 125.115L155.428 125.408C155.823 126.695 156.291 128.041 156.832 129.387L156.949 129.68L156.73 129.899C156.13 130.499 155.457 131.143 154.77 131.772C154.126 132.371 153.468 132.986 152.898 133.556C153.293 134.434 153.717 135.312 154.156 136.146C154.975 136.058 155.881 135.926 156.774 135.794C157.681 135.663 158.587 135.531 159.407 135.429L159.714 135.4L159.875 135.677C160.591 136.936 161.352 138.135 162.113 139.247L162.288 139.51L162.127 139.774C161.688 140.49 161.162 141.266 160.65 142.026C160.153 142.758 159.641 143.518 159.216 144.206C159.728 144.923 160.313 145.64 161.016 146.459C161.791 146.196 162.639 145.859 163.458 145.537C164.321 145.201 165.184 144.864 165.974 144.586L166.267 144.484L166.471 144.718C167.422 145.757 168.431 146.766 169.455 147.702L169.689 147.907L169.587 148.2C169.309 148.99 168.987 149.853 168.651 150.701C168.329 151.52 168.007 152.369 167.729 153.144C168.563 153.846 169.28 154.432 169.967 154.958C170.655 154.519 171.415 154.022 172.147 153.525C172.922 152.998 173.682 152.486 174.399 152.032L174.662 151.872L174.926 152.047C176.067 152.837 177.266 153.583 178.495 154.285L178.773 154.446L178.743 154.753C178.656 155.587 178.524 156.494 178.378 157.416C178.246 158.294 178.114 159.201 178.027 160.005C178.86 160.429 179.738 160.854 180.63 161.263C181.201 160.693 181.815 160.034 182.415 159.391C183.058 158.703 183.687 158.03 184.287 157.43L184.506 157.211L184.799 157.328C186.144 157.869 187.49 158.337 188.777 158.732L189.07 158.82L189.099 159.127C189.201 159.961 189.275 160.868 189.333 161.79C189.406 162.682 189.479 163.589 189.567 164.423C190.445 164.642 191.366 164.862 192.376 165.052C192.8 164.365 193.253 163.589 193.692 162.843C194.16 162.039 194.628 161.219 195.081 160.503L195.242 160.239L195.55 160.283C196.851 160.488 198.226 160.634 199.747 160.737L200.055 160.766L200.157 161.058C200.435 161.834 200.698 162.711 200.976 163.575C201.239 164.438 201.517 165.315 201.795 166.105H201.839C202.79 166.135 203.741 166.135 204.691 166.105H204.735C205.013 165.315 205.291 164.438 205.554 163.575C205.832 162.711 206.096 161.834 206.373 161.058L206.476 160.766L206.783 160.737C208.304 160.634 209.679 160.488 210.981 160.283L211.288 160.239L211.449 160.503C211.902 161.219 212.37 162.039 212.838 162.843C213.277 163.589 213.731 164.365 214.155 165.052C215.15 164.847 216.086 164.642 216.963 164.423C217.066 163.604 217.124 162.682 217.197 161.804C217.27 160.898 217.344 159.976 217.431 159.142L217.461 158.835L217.753 158.747C219.04 158.352 220.386 157.884 221.732 157.343L222.024 157.226L222.244 157.445C222.843 158.045 223.487 158.732 224.13 159.405C224.73 160.049 225.344 160.707 225.915 161.278C226.793 160.883 227.67 160.459 228.518 160.02C228.431 159.201 228.299 158.308 228.167 157.43C228.036 156.523 227.904 155.602 227.802 154.768L227.773 154.461L228.05 154.3C229.308 153.583 230.508 152.822 231.619 152.062L231.883 151.886L232.146 152.047C232.863 152.501 233.638 153.013 234.413 153.539C235.144 154.037 235.89 154.534 236.578 154.973C237.265 154.446 237.997 153.861 238.816 153.159C238.553 152.384 238.216 151.535 237.894 150.716C237.558 149.853 237.221 149.004 236.958 148.214L236.856 147.922L237.09 147.717C238.114 146.781 239.123 145.771 240.074 144.733L240.278 144.499L240.571 144.601C241.361 144.879 242.224 145.215 243.087 145.537C243.906 145.859 244.754 146.181 245.53 146.459C246.232 145.64 246.817 144.908 247.343 144.221C246.919 143.533 246.407 142.787 245.91 142.056C245.383 141.28 244.871 140.505 244.418 139.788L244.257 139.525L244.433 139.262C245.208 138.135 245.968 136.936 246.67 135.692L246.831 135.414L247.138 135.443C247.972 135.531 248.879 135.663 249.786 135.809C250.664 135.941 251.57 136.072 252.39 136.16C252.828 135.312 253.238 134.449 253.647 133.571C253.077 133 252.419 132.386 251.775 131.786C251.088 131.143 250.415 130.513 249.815 129.914L249.596 129.694L249.713 129.402C250.254 128.056 250.722 126.71 251.117 125.423L251.205 125.13L251.512 125.101C252.346 124.998 253.253 124.925 254.174 124.852C255.066 124.779 255.973 124.706 256.792 124.618C257.026 123.726 257.231 122.804 257.421 121.809C256.734 121.385 255.958 120.932 255.213 120.493C254.408 120.025 253.589 119.557 252.872 119.103L252.609 118.942L252.653 118.635C252.858 117.333 253.004 115.958 253.106 114.436L253.121 114.129L253.413 114.027C254.189 113.749 255.066 113.471 255.929 113.208C256.792 112.944 257.67 112.666 258.445 112.388V112.315C258.46 111.847 258.474 111.394 258.474 110.926C258.474 110.457 258.46 110.004 258.445 109.536L258.518 109.433ZM206.344 96.0042C206.856 89.8747 207.997 83.6574 209.752 77.5134L209.869 77.0891L210.308 77.1769C214.594 78.0692 218.645 79.7516 222.317 82.1946L222.682 82.4286L222.478 82.809C219.464 88.5142 215.866 93.7221 211.785 98.2862L211.522 98.5935L211.186 98.374C209.811 97.5109 208.319 96.8819 206.739 96.5015L206.344 96.4138V96.0042ZM184.418 82.1068C188.104 79.6784 192.156 78.0107 196.442 77.1476L196.866 77.0599L196.998 77.4695C198.899 83.6282 200.04 89.8601 200.376 95.9749L200.406 96.3845L200.011 96.4723C198.446 96.8234 196.954 97.4378 195.564 98.2862L195.213 98.5057L194.95 98.1985C190.913 93.4295 187.329 88.2363 184.258 82.7358L184.038 82.3555L184.418 82.1068ZM169.572 103.889C170.464 99.6028 172.147 95.5653 174.589 91.8788L174.823 91.5131L175.204 91.7179C180.908 94.7314 186.115 98.3301 190.679 102.412L190.986 102.675L190.767 103.011C189.904 104.386 189.275 105.879 188.894 107.458L188.807 107.853L188.397 107.824C182.268 107.312 176.052 106.171 169.909 104.416L169.484 104.299L169.572 103.889ZM175.13 129.928L174.75 130.148L174.501 129.782C172.073 126.096 170.406 122.043 169.543 117.757L169.455 117.333L169.865 117.201C176.023 115.3 182.254 114.158 188.368 113.822L188.777 113.793L188.865 114.188C189.216 115.753 189.83 117.245 190.679 118.635L190.898 118.986L190.591 119.249C185.823 123.272 180.63 126.871 175.13 129.928ZM200.245 125.788C199.733 131.918 198.592 138.135 196.851 144.279L196.734 144.703L196.296 144.616C191.995 143.723 187.958 142.041 184.287 139.598L183.921 139.364L184.126 138.984C187.139 133.278 190.737 128.07 194.818 123.506L195.081 123.199L195.418 123.419C196.793 124.282 198.285 124.911 199.864 125.291L200.259 125.379L200.245 125.788ZM203.287 121.561C200.435 121.561 197.758 120.449 195.754 118.43C193.736 116.411 192.624 113.734 192.624 110.882C192.624 108.029 193.736 105.352 195.74 103.348C197.758 101.329 200.435 100.217 203.287 100.217C206.139 100.217 208.816 101.329 210.835 103.348C214.989 107.502 214.989 114.276 210.835 118.43C208.816 120.449 206.139 121.561 203.287 121.561ZM222.17 139.686C218.484 142.114 214.433 143.782 210.147 144.645L209.723 144.733L209.591 144.323C207.69 138.164 206.549 131.932 206.213 125.818L206.183 125.408L206.578 125.32C208.143 124.969 209.635 124.355 211.025 123.506L211.376 123.287L211.639 123.594C215.676 128.363 219.26 133.556 222.331 139.057L222.551 139.437L222.17 139.686ZM237.002 117.903C236.11 122.19 234.428 126.242 231.985 129.914L231.751 130.279L231.371 130.075C225.681 127.061 220.474 123.462 215.896 119.381L215.588 119.118L215.808 118.781C216.671 117.406 217.3 115.914 217.68 114.334L217.768 113.939L218.177 113.968C224.306 114.48 230.522 115.621 236.666 117.377L237.09 117.494L237.002 117.903ZM236.71 104.591C230.552 106.493 224.321 107.634 218.207 107.971L217.797 108L217.709 107.605C217.358 106.04 216.744 104.547 215.896 103.158L215.676 102.807L215.983 102.543C220.737 98.5203 225.944 94.9216 231.444 91.8496L231.824 91.6301L232.073 91.9959C234.501 95.6823 236.168 99.7345 237.031 104.021L237.119 104.445L236.71 104.591Z" fill="#F7C781"/>
</g>
<g clip-path="url(#clip2)">
<g clip-path="url(#clip3)">
<path d="M177.5 32.0537C176.595 31.7595 175.656 31.454 174.864 31.1372L174.706 31.0807L174.683 30.9109C174.514 29.5872 174.253 28.2634 173.903 26.9962L173.858 26.8378L173.982 26.7247C174.615 26.1024 175.407 25.4349 176.154 24.7899C177.116 23.964 178.111 23.1154 178.79 22.3687C178.53 21.6898 178.235 20.9884 177.896 20.2303C176.867 20.1851 175.543 20.2869 174.242 20.3887C173.281 20.4679 172.274 20.5471 171.403 20.5584H171.233L171.154 20.4113C170.498 19.2573 169.751 18.1485 168.937 17.0963L168.835 16.9605L168.903 16.8021C169.253 15.9988 169.706 15.0936 170.147 14.2225C170.724 13.0797 171.335 11.8917 171.674 10.93C171.154 10.3643 170.6 9.82122 170.034 9.28945C169.084 9.62888 167.896 10.2285 166.753 10.8169C165.882 11.2581 164.977 11.722 164.163 12.0614L164.004 12.1293L163.869 12.0275C162.828 11.2129 161.708 10.4661 160.554 9.80991L160.407 9.73071V9.56099C160.418 8.6898 160.498 7.69415 160.577 6.72112C160.679 5.4313 160.78 4.09622 160.735 3.07794C159.989 2.73851 159.287 2.44434 158.597 2.18412C157.851 2.86297 157.002 3.85862 156.176 4.83165C155.532 5.5897 154.864 6.37038 154.242 7.00398L154.129 7.12843L153.97 7.08318C152.703 6.73244 151.38 6.47221 150.056 6.3025L149.887 6.27987L149.83 6.12147C149.513 5.32947 149.208 4.39039 148.914 3.48525C148.507 2.24069 148.088 0.950866 147.635 0.0117851C146.844 -0.0221575 146.052 -0.0221575 145.26 0.0117851C144.819 0.950866 144.4 2.24069 143.993 3.48525C143.699 4.39039 143.393 5.32947 143.077 6.12147L143.02 6.27987L142.85 6.3025C141.527 6.47221 140.215 6.73244 138.936 7.08318L138.778 7.12843L138.665 7.00398C138.043 6.37038 137.375 5.5897 136.73 4.83165C135.905 3.86994 135.045 2.86297 134.31 2.18412C133.619 2.44434 132.918 2.73851 132.171 3.07794C132.126 4.09622 132.228 5.4313 132.33 6.72112C132.409 7.68283 132.488 8.6898 132.5 9.56099V9.73071L132.352 9.80991C131.199 10.4774 130.079 11.2242 129.038 12.0275L128.947 12.152L128.789 12.0841C127.986 11.7333 127.081 11.2808 126.21 10.8395C125.067 10.2625 123.879 9.66282 122.929 9.31208C122.364 9.83253 121.821 10.3869 121.289 10.9526C121.628 11.903 122.239 13.091 122.816 14.2338C123.257 15.105 123.721 16.0101 124.072 16.8247L124.14 16.9831L124.038 17.1189C123.223 18.1711 122.477 19.2799 121.821 20.434L121.741 20.5811H121.572C120.701 20.5697 119.705 20.4905 118.732 20.4113C117.443 20.3095 116.108 20.2077 115.09 20.2529C114.75 20.9997 114.456 21.7012 114.196 22.3913C114.875 23.1381 115.87 23.9866 116.843 24.8126C117.601 25.4575 118.382 26.125 119.015 26.7473L119.14 26.8604L119.094 27.0188C118.744 28.286 118.483 29.6098 118.314 30.9336L118.291 31.1033L118.133 31.1599C117.341 31.4767 116.402 31.7821 115.497 32.0763C114.253 32.4836 112.963 32.9022 112.024 33.3435C111.99 33.7169 111.979 34.1129 111.979 34.5089C111.979 34.9049 111.99 35.3009 112.002 35.6969C112.94 36.1381 114.23 36.5567 115.474 36.9641C116.379 37.2582 117.318 37.5637 118.11 37.8805L118.269 37.9371L118.291 38.1068C118.461 39.4306 118.721 40.743 119.072 42.0215L119.117 42.1799L118.993 42.2931C118.359 42.9153 117.567 43.5829 116.821 44.2278C115.859 45.0537 114.864 45.9023 114.173 46.649C114.434 47.3392 114.728 48.0407 115.067 48.7874C116.097 48.8327 117.42 48.7309 118.71 48.629C119.671 48.5498 120.678 48.4706 121.549 48.4593H121.719L121.798 48.6064C122.454 49.7604 123.201 50.8692 124.015 51.9215L124.117 52.0572L124.049 52.2156C123.698 53.0189 123.246 53.9241 122.794 54.8066C122.217 55.9493 121.617 57.1373 121.266 58.0877C121.787 58.6534 122.341 59.1965 122.907 59.7283C123.857 59.3889 125.045 58.7892 126.187 58.2009C127.058 57.7596 127.963 57.2957 128.778 56.9563L128.947 56.8771L129.083 56.9789C130.135 57.7935 131.244 58.5403 132.398 59.1965L132.545 59.2757V59.4454C132.533 60.3166 132.454 61.3123 132.375 62.2853C132.273 63.5751 132.171 64.9102 132.217 65.9398C132.963 66.2792 133.665 66.5734 134.355 66.8336C135.09 66.1548 135.95 65.1591 136.776 64.1861C137.42 63.428 138.088 62.6474 138.71 62.0138L138.823 61.8893L138.982 61.9346C140.249 62.2853 141.572 62.5455 142.896 62.7152L143.065 62.7379L143.122 62.8963C143.439 63.6883 143.744 64.6273 144.038 65.5438C144.445 66.7884 144.864 68.0782 145.305 69.0173C146.097 69.0512 146.889 69.0512 147.681 69.0173C148.122 68.0782 148.552 66.7884 148.959 65.5438C149.253 64.6387 149.559 63.6996 149.875 62.9076L149.932 62.7492L150.102 62.7265C151.425 62.5568 152.749 62.2966 154.016 61.9459L154.174 61.9006L154.287 62.0251C154.909 62.6587 155.577 63.4393 156.222 64.1974C157.047 65.1591 157.907 66.1661 158.642 66.8449C159.332 66.5847 160.034 66.2905 160.78 65.9511C160.826 64.9215 160.724 63.5977 160.622 62.2966C160.543 61.3349 160.464 60.3279 160.452 59.4567V59.287L160.599 59.2078C161.753 58.5516 162.873 57.7935 163.914 56.9902L164.05 56.8884L164.208 56.9563C165.011 57.307 165.916 57.7596 166.787 58.2009C167.93 58.7779 169.118 59.3889 170.068 59.7283C170.634 59.2078 171.177 58.6534 171.708 58.0877C171.369 57.1373 170.769 55.9493 170.181 54.8066C169.74 53.9354 169.276 53.0303 168.925 52.2156L168.857 52.0572L168.959 51.9215C169.774 50.8692 170.52 49.7491 171.177 48.6064L171.256 48.4593H171.425C172.296 48.4706 173.292 48.5498 174.265 48.629C175.328 48.7082 176.437 48.7987 177.364 48.7987C177.557 48.7987 177.738 48.7987 177.919 48.7874C178.258 48.0407 178.552 47.3392 178.812 46.649C178.134 45.9136 177.138 45.0537 176.165 44.2278C175.407 43.5829 174.627 42.9153 173.993 42.2931L173.869 42.1799L173.914 42.0215C174.265 40.7543 174.525 39.4306 174.695 38.1068L174.717 37.9371L174.876 37.8805C175.668 37.5637 176.606 37.2582 177.511 36.9641C178.756 36.5567 180.045 36.1381 180.984 35.6969C180.996 35.3009 181.007 34.9049 181.007 34.5089C181.007 34.1129 180.996 33.7169 180.984 33.3209C180.045 32.8796 178.756 32.461 177.5 32.0537ZM165.566 22.1085C165.995 22.776 166.403 23.4775 166.765 24.1903L166.889 24.4279L154.717 31.454L154.593 31.1599C154.31 30.4697 153.914 29.8021 153.439 29.1799L153.246 28.9196L165.43 21.8822L165.566 22.1085ZM148.948 11.8917L149.264 11.9257C155.339 12.6611 160.95 15.897 164.661 20.8073L164.853 21.0676L152.545 28.1729L152.387 28.0371C151.436 27.1659 150.339 26.5437 149.151 26.159L148.959 26.0911V11.8917H148.948ZM145.022 11.8012L145.294 11.7899C146.086 11.7446 146.9 11.7446 147.692 11.7899L147.964 11.8012V25.8648L147.647 25.8195C146.753 25.7064 146.21 25.7064 145.35 25.8195L145.034 25.8648V11.8012H145.022ZM128.314 20.8186C132.013 15.9083 137.624 12.6724 143.699 11.937L144.016 11.903V26.1137L143.823 26.1816C142.624 26.5663 141.538 27.1999 140.588 28.0598L140.429 28.1955L128.122 21.0902L128.314 20.8186ZM126.21 24.1903C126.572 23.4775 126.979 22.776 127.409 22.1085L127.556 21.8822L139.739 28.9196L139.547 29.1799C139.072 29.8021 138.676 30.4697 138.393 31.1599L138.269 31.454L126.097 24.4279L126.21 24.1903ZM125.542 43.4132C124.343 40.5959 123.732 37.5976 123.732 34.5202C123.732 31.4427 124.343 28.4444 125.531 25.6385L125.656 25.3443L137.963 32.4497L137.918 32.6533C137.782 33.2756 137.715 33.9092 137.715 34.5202C137.715 35.1425 137.782 35.7761 137.918 36.3983L137.963 36.602L125.667 43.7073L125.542 43.4132ZM127.42 46.9206C126.99 46.2644 126.583 45.5629 126.221 44.8388L126.097 44.6012L138.269 37.575L138.393 37.8692C138.676 38.5594 139.072 39.2269 139.547 39.8492L139.739 40.1094L127.556 47.1469L127.42 46.9206ZM144.038 57.1373L143.721 57.1034C137.647 56.368 132.036 53.1321 128.325 48.2217L128.133 47.9615L140.441 40.8561L140.599 40.9919C141.549 41.8631 142.635 42.4854 143.835 42.8701L144.027 42.938V57.1373H144.038ZM147.964 57.2278L147.692 57.2392C147.296 57.2618 146.889 57.2731 146.493 57.2731C146.097 57.2731 145.701 57.2618 145.305 57.2392L145.034 57.2278V43.1643L145.35 43.2095C146.244 43.3226 146.787 43.3226 147.647 43.2095L147.964 43.1643V57.2278ZM146.493 39.5663C144.694 39.5663 143.02 38.6046 142.115 37.0433C141.436 35.8779 141.267 34.5202 141.606 33.219C141.957 31.9179 142.794 30.8317 143.959 30.1529C144.728 29.7116 145.599 29.474 146.482 29.474C148.28 29.474 149.955 30.4357 150.848 31.9971C152.24 34.407 151.414 37.4958 149.004 38.8875C148.246 39.3287 147.375 39.5663 146.493 39.5663ZM164.672 48.2104C160.973 53.1208 155.362 56.3566 149.287 57.0921L148.97 57.126V42.938L149.163 42.8701C150.362 42.4854 151.448 41.8518 152.398 40.9919L152.556 40.8561L164.864 47.9615L164.672 48.2104ZM166.776 44.8388C166.414 45.5516 166.007 46.253 165.577 46.9206L165.43 47.1469L153.246 40.1094L153.439 39.8492C153.914 39.2269 154.31 38.5594 154.593 37.8692L154.717 37.575L166.889 44.6012L166.776 44.8388ZM167.455 43.4018L167.33 43.696L155.022 36.5907L155.068 36.387C155.203 35.7647 155.271 35.1311 155.271 34.5202C155.271 33.8979 155.203 33.2643 155.068 32.642L155.022 32.4384L167.33 25.333L167.455 25.6272C168.654 28.4444 169.265 31.4427 169.265 34.5202C169.253 37.5976 168.643 40.5846 167.455 43.4018Z" fill="#F7C781"/>
</g>
</g>
<g clip-path="url(#clip4)">
<path d="M140.166 108.906C139.183 108.554 138.051 108.201 136.975 107.867C135.88 107.514 134.767 107.18 133.783 106.828L133.412 106.698L133.393 106.308C133.264 104.378 133.078 102.634 132.818 100.982L132.763 100.592L133.097 100.388C134.006 99.813 135.026 99.2191 136.047 98.6253C137.012 98.0686 137.995 97.4933 138.849 96.9551C138.607 95.6932 138.329 94.5241 138.051 93.392C137.012 93.2621 135.843 93.1693 134.711 93.0951C133.56 93.0023 132.41 92.9095 131.352 92.7982L130.963 92.7611L130.851 92.3899C130.35 90.7568 129.757 89.0495 129.07 87.3422L128.922 86.9711L129.2 86.6927C129.961 85.9318 130.814 85.1153 131.686 84.3173C132.503 83.5565 133.338 82.777 134.061 82.0533C133.56 80.9398 133.022 79.8264 132.466 78.7686C131.427 78.8799 130.276 79.047 129.144 79.214C127.994 79.381 126.843 79.548 125.804 79.6779L125.415 79.715L125.211 79.3624C124.301 77.785 123.355 76.2633 122.372 74.8344L122.149 74.5003L122.353 74.1663C122.91 73.257 123.578 72.2734 124.246 71.2898C124.877 70.362 125.507 69.4155 126.064 68.5433C125.396 67.6525 124.654 66.7432 123.763 65.704C122.78 66.038 121.722 66.4648 120.683 66.8546C119.588 67.2814 118.494 67.7082 117.473 68.0608L117.102 68.1907L116.842 67.8938C115.636 66.5947 114.374 65.3143 113.057 64.108L112.76 63.8482L112.89 63.4771C113.242 62.4749 113.669 61.38 114.096 60.2851C114.504 59.2459 114.912 58.1696 115.265 57.2046C114.189 56.2396 113.261 55.4973 112.389 54.8106C111.517 55.3488 110.552 55.9983 109.624 56.6293C108.641 57.2974 107.676 57.9469 106.748 58.5222L106.414 58.7263L106.08 58.5036C104.651 57.52 103.13 56.5736 101.553 55.6643L101.2 55.4601L101.237 55.0704C101.349 54.0126 101.516 52.8621 101.701 51.6929C101.868 50.5795 102.035 49.4289 102.146 48.3897C101.07 47.8329 99.957 47.2948 98.8436 46.7937C98.12 47.5175 97.3407 48.3526 96.5799 49.1505C95.7635 50.0227 94.9656 50.8764 94.1863 51.6373L93.908 51.9156L93.5368 51.7672C91.8298 51.0805 90.1227 50.4867 88.4898 49.9856L88.1002 49.8743L88.0631 49.4846C87.9332 48.4453 87.8589 47.2762 87.7662 46.1256C87.6734 44.9936 87.5806 43.8245 87.4693 42.7853C86.3374 42.5069 85.1684 42.2285 83.9067 41.9873C83.3686 42.8595 82.7934 43.843 82.2367 44.7895C81.643 45.8102 81.0492 46.8494 80.474 47.7587L80.2699 48.0927L79.8802 48.0371C78.2473 47.7773 76.5032 47.5917 74.5549 47.4618L74.1652 47.4432L74.0353 47.0721C73.6828 46.0885 73.3488 44.9751 72.9962 43.8802C72.6622 42.7853 72.3097 41.6718 71.9571 40.6882H71.9015C70.6954 40.6511 69.4893 40.6511 68.2832 40.6882H68.2275C67.875 41.6904 67.5224 42.8038 67.1884 43.8987C66.8359 44.9936 66.5019 46.0885 66.1494 47.0906L66.0195 47.4618L65.6298 47.4803C63.7001 47.6102 61.9559 47.7958 60.3045 48.0556L59.9333 48.1113L59.7292 47.7773C59.154 46.8679 58.5603 45.8287 57.9479 44.808C57.3913 43.8616 56.8346 42.878 56.278 42.0058C55.0162 42.2656 53.8472 42.5254 52.7154 42.8038C52.5855 43.843 52.5113 45.0122 52.4185 46.1256C52.3257 47.2762 52.2329 48.4453 52.1216 49.5031L52.0845 49.8928L51.7134 50.0042C50.0805 50.5052 48.3735 51.0991 46.6664 51.7857L46.2953 51.9342L46.0169 51.6558C45.2562 50.895 44.4397 50.0227 43.6233 49.1691C42.8626 48.3526 42.0832 47.536 41.3596 46.8123C40.2463 47.3133 39.133 47.8515 38.0568 48.4082C38.1681 49.4475 38.3351 50.598 38.5021 51.6929C38.6691 52.8435 38.8361 54.0126 38.966 55.0704L39.0031 55.4601L38.6505 55.6643C37.0548 56.5736 35.5332 57.5386 34.123 58.5036L33.789 58.7263L33.4551 58.5222C32.5459 57.9654 31.581 57.2974 30.5976 56.6478C29.6698 56.0169 28.7049 55.3674 27.8328 54.8292C26.9607 55.4973 26.033 56.2396 24.9939 57.1303C25.3279 58.1139 25.7546 59.1902 26.1629 60.2295C26.5896 61.3244 27.0164 62.4193 27.3504 63.4214L27.4803 63.7925L27.1834 64.0709C25.866 65.2772 24.6042 66.5576 23.3981 67.8567L23.1384 68.1536L22.7673 68.0237C21.7653 67.6711 20.6705 67.2628 19.5943 66.836C18.5552 66.4277 17.4605 66.0009 16.4956 65.6669C15.5864 66.669 14.8442 67.5969 14.1762 68.4691C14.7328 69.3413 15.3637 70.3063 15.9946 71.2342C16.644 72.1992 17.312 73.1827 17.8687 74.0921L18.0728 74.4261L17.8501 74.7601C16.8667 76.1891 15.9204 77.7108 15.0112 79.2882L14.8071 79.6408L14.4174 79.6037C13.3598 79.4923 12.2093 79.3253 11.0589 79.1397C9.9456 78.9727 8.79517 78.8057 7.75608 78.6944C7.19942 79.7707 6.66132 80.8842 6.16033 81.9791C6.88399 82.7028 7.71897 83.4822 8.5354 84.2431C9.40749 85.0596 10.261 85.8576 11.0218 86.6185L11.3001 86.8968L11.1517 87.268C10.4651 88.9753 9.87138 90.6826 9.37039 92.3157L9.27761 92.724L8.88795 92.7611C7.84886 92.891 6.69843 92.9652 5.52945 93.058C4.39759 93.1508 3.22861 93.2436 2.18952 93.3549C1.91119 94.4869 1.63286 95.6561 1.39164 96.918C2.26374 97.4562 3.24716 98.0314 4.19348 98.5882C5.21402 99.182 6.23455 99.7759 7.16231 100.351L7.49631 100.555L7.42209 100.964C7.16231 102.615 6.97676 104.36 6.84688 106.29L6.82832 106.679L6.45722 106.809C5.47379 107.162 4.36048 107.514 3.26572 107.848C2.18952 108.182 1.05765 108.535 0.0742209 108.888V108.999C0.0185552 109.593 0 110.168 0 110.762C0 111.337 0.0185552 111.931 0.0371104 112.506V112.618C1.03909 112.97 2.15241 113.323 3.24716 113.657C4.34192 114.01 5.43668 114.344 6.43866 114.696L6.80976 114.826L6.82832 115.216C6.95821 117.146 7.14376 118.89 7.40353 120.542L7.4592 120.932L7.1252 121.136C6.216 121.711 5.19546 122.305 4.17492 122.899C3.21005 123.455 2.22663 124.031 1.37309 124.569C1.63286 125.831 1.89263 127 2.17096 128.132C3.21005 128.262 4.36048 128.336 5.49234 128.429C6.66132 128.522 7.81175 128.614 8.86939 128.744L9.27761 128.8L9.38894 129.171C9.88993 130.804 10.4837 132.512 11.1702 134.219L11.3187 134.59L11.0404 134.868C10.2796 135.629 9.42605 136.446 8.55396 137.244C7.73753 138.005 6.90254 138.784 6.17889 139.508C6.67988 140.621 7.21798 141.735 7.77464 142.793C8.81373 142.681 9.96415 142.514 11.096 142.347C12.2464 142.18 13.3969 142.013 14.436 141.883L14.8256 141.846L15.0297 142.199C15.9389 143.795 16.9038 145.316 17.8687 146.727L18.0913 147.061L17.8872 147.395C17.3306 148.304 16.6626 149.288 16.0132 150.253C15.3823 151.181 14.7328 152.146 14.1947 153.018C14.8442 153.927 15.5864 154.836 16.477 155.876C17.4605 155.542 18.5367 155.115 19.5758 154.707C20.6705 154.28 21.7653 153.853 22.7673 153.5L23.1384 153.37L23.3981 153.667C24.6042 154.985 25.8845 156.265 27.1834 157.453L27.4803 157.713L27.3504 158.084C26.9978 159.086 26.5896 160.181 26.1629 161.257C25.7546 162.297 25.3464 163.373 24.9939 164.357C26.0515 165.247 26.9607 165.99 27.8328 166.658C28.7049 166.101 29.6698 165.47 30.5976 164.839C31.581 164.171 32.5459 163.521 33.4551 162.946L33.789 162.742L34.123 162.965C35.5704 163.967 37.0919 164.913 38.6505 165.804L39.0031 166.008L38.966 166.398C38.8546 167.456 38.6876 168.606 38.5021 169.775C38.3351 170.889 38.1681 172.039 38.0568 173.06C39.1144 173.598 40.2277 174.136 41.3596 174.656C42.0832 173.932 42.8626 173.097 43.6233 172.281C44.4397 171.408 45.2376 170.555 45.9984 169.794L46.2767 169.516L46.6478 169.664C48.3549 170.351 50.062 170.945 51.6948 171.446L52.0659 171.557L52.1031 171.947C52.2329 173.004 52.3257 174.155 52.3999 175.324C52.4927 176.456 52.5855 177.607 52.6968 178.665C53.8101 178.943 54.9791 179.221 56.2594 179.463C56.7975 178.59 57.3727 177.607 57.9294 176.66C58.5232 175.64 59.1169 174.6 59.6921 173.691L59.8962 173.357L60.2859 173.413C61.9373 173.673 63.6815 173.858 65.6112 173.988L66.0009 174.025L66.1308 174.396C66.4833 175.38 66.8173 176.493 67.1699 177.588C67.5039 178.683 67.8564 179.797 68.209 180.799H68.2646C69.4707 180.836 70.6768 180.836 71.8829 180.799H71.9386C72.2911 179.797 72.6437 178.683 72.9777 177.588C73.3302 176.493 73.6642 175.38 74.0168 174.396L74.1466 174.025L74.5363 173.988C76.466 173.858 78.2102 173.673 79.8617 173.413L80.2513 173.357L80.4554 173.691C81.0306 174.6 81.6244 175.64 82.2182 176.66C82.7748 177.607 83.35 178.59 83.8881 179.463C85.1499 179.203 86.3374 178.943 87.4507 178.665C87.5806 177.625 87.6548 176.456 87.7476 175.343C87.8404 174.192 87.9332 173.023 88.0445 171.965L88.0816 171.576L88.4527 171.464C90.0856 170.963 91.7927 170.369 93.4997 169.683L93.8708 169.534L94.1492 169.813C94.9099 170.573 95.7264 171.446 96.5428 172.299C97.3036 173.116 98.0829 173.951 98.8065 174.675C99.9198 174.174 101.033 173.635 102.109 173.079C101.998 172.039 101.831 170.907 101.664 169.794C101.497 168.643 101.33 167.474 101.2 166.416L101.163 166.027L101.516 165.823C103.111 164.913 104.633 163.948 106.043 162.983L106.377 162.761L106.711 162.965C107.62 163.54 108.604 164.19 109.587 164.858C110.515 165.489 111.461 166.12 112.333 166.676C113.205 166.008 114.133 165.266 115.172 164.375C114.838 163.392 114.411 162.315 114.003 161.276C113.576 160.181 113.15 159.105 112.816 158.103L112.686 157.731L112.983 157.472C114.282 156.284 115.562 155.004 116.768 153.686L117.028 153.389L117.399 153.519C118.401 153.871 119.496 154.298 120.59 154.707C121.629 155.115 122.706 155.523 123.689 155.876C124.58 154.836 125.322 153.909 125.99 153.036C125.452 152.164 124.802 151.218 124.172 150.29C123.504 149.306 122.854 148.323 122.279 147.413L122.075 147.079L122.297 146.745C123.281 145.316 124.246 143.795 125.136 142.217L125.34 141.865L125.73 141.902C126.788 142.013 127.938 142.18 129.089 142.366C130.202 142.533 131.352 142.7 132.391 142.811C132.948 141.735 133.468 140.64 133.987 139.526C133.264 138.803 132.429 138.023 131.612 137.262C130.74 136.446 129.887 135.648 129.126 134.887L128.847 134.609L128.996 134.237C129.682 132.53 130.276 130.823 130.777 129.19L130.889 128.819L131.278 128.782C132.336 128.652 133.486 128.559 134.655 128.466C135.787 128.373 136.938 128.28 137.977 128.169C138.273 127.037 138.533 125.868 138.774 124.606C137.902 124.068 136.919 123.493 135.973 122.936C134.952 122.342 133.913 121.748 133.004 121.173L132.67 120.969L132.725 120.579C132.985 118.927 133.171 117.183 133.301 115.253L133.319 114.863L133.69 114.733C134.674 114.381 135.787 114.028 136.882 113.694C137.977 113.36 139.09 113.007 140.073 112.655V112.562C140.092 111.968 140.11 111.393 140.11 110.799C140.11 110.205 140.092 109.63 140.073 109.036L140.166 108.906ZM73.9796 91.8703C74.6291 84.0946 76.0764 76.2076 78.303 68.4134L78.4515 67.8752L79.0081 67.9866C84.4448 69.1186 89.5846 71.2527 94.242 74.3519L94.7058 74.6488L94.4461 75.1313C90.6237 82.3688 86.0591 88.9753 80.8822 94.7653L80.5482 95.155L80.1214 94.8766C78.3772 93.7817 76.4846 92.9838 74.4806 92.5013L73.9796 92.3899V91.8703ZM46.1654 74.2405C50.8413 71.1599 55.9811 69.0444 61.4178 67.9495L61.9559 67.8381L62.1229 68.3577C64.535 76.1705 65.9824 84.0761 66.4091 91.8332L66.4462 92.3528L65.9452 92.4641C63.9598 92.9095 62.0672 93.689 60.3045 94.7653L59.8591 95.0437L59.5251 94.654C54.4039 88.6042 49.8579 82.0162 45.9613 75.0385L45.6829 74.556L46.1654 74.2405ZM27.3318 101.873C28.4637 96.4355 30.5976 91.3136 33.6963 86.637L33.9932 86.1731L34.4756 86.4329C41.7121 90.2558 48.3178 94.821 54.107 99.9986L54.4967 100.333L54.2183 100.759C53.1236 102.504 52.3257 104.397 51.8433 106.401L51.7319 106.902L51.2124 106.865C43.4378 106.215 35.5518 104.768 27.7586 102.541L27.2205 102.393L27.3318 101.873ZM34.3828 134.906L33.9004 135.184L33.5849 134.72C30.5048 130.043 28.3895 124.903 27.2947 119.466L27.1834 118.927L27.7029 118.76C35.5147 116.348 43.4192 114.9 51.1753 114.474L51.6948 114.436L51.8062 114.937C52.2515 116.923 53.0308 118.816 54.107 120.579L54.3853 121.024L53.9957 121.358C47.9467 126.462 41.3596 131.027 34.3828 134.906ZM66.2421 129.654C65.5927 137.429 64.1454 145.316 61.9373 153.111L61.7889 153.649L61.2322 153.537C55.777 152.405 50.6557 150.271 45.9984 147.172L45.5345 146.875L45.7943 146.393C49.6166 139.155 54.1812 132.549 59.3581 126.759L59.6921 126.369L60.1189 126.647C61.8631 127.742 63.7557 128.54 65.7597 129.023L66.2607 129.134L66.2421 129.654ZM70.1016 124.291C66.4833 124.291 63.0877 122.88 60.5457 120.319C57.9851 117.758 56.5749 114.362 56.5749 110.743C56.5749 107.125 57.9851 103.729 60.5271 101.186C63.0877 98.6253 66.4833 97.2149 70.1016 97.2149C73.7199 97.2149 77.1155 98.6253 79.6761 101.186C84.9458 106.457 84.9458 115.049 79.6761 120.319C77.1155 122.88 73.7199 124.291 70.1016 124.291ZM94.0564 147.284C89.3805 150.364 84.2407 152.48 78.804 153.575L78.2659 153.686L78.0989 153.166C75.6867 145.354 74.2394 137.448 73.8127 129.691L73.7755 129.171L74.2765 129.06C76.2619 128.614 78.1546 127.835 79.9173 126.759L80.3626 126.48L80.6966 126.87C85.8179 132.92 90.3639 139.508 94.2605 146.486L94.5388 146.968L94.0564 147.284ZM112.871 119.651C111.74 125.089 109.606 130.229 106.507 134.887L106.21 135.351L105.728 135.091C98.5096 131.268 91.904 126.703 86.0962 121.525L85.7065 121.191L85.9849 120.765C87.0796 119.02 87.8775 117.127 88.3599 115.123L88.4713 114.622L88.9908 114.659C96.7655 115.309 104.651 116.756 112.445 118.983L112.983 119.132L112.871 119.651ZM112.5 102.764C104.689 105.176 96.784 106.624 89.0279 107.05L88.5084 107.088L88.397 106.587C87.9517 104.601 87.1724 102.708 86.0962 100.945L85.8179 100.5L86.2075 100.166C92.238 95.0622 98.8436 90.497 105.82 86.5999L106.303 86.3216L106.618 86.7855C109.698 91.462 111.814 96.6025 112.908 102.04L113.02 102.578L112.5 102.764Z" fill="#F7C781"/>
</g>
<defs>
<clipPath id="clip0">
<rect width="215.386" height="214.754" fill="white" transform="translate(252.877 3.83496)"/>
</clipPath>
<clipPath id="clip1">
<rect width="110.535" height="110.535" fill="white" transform="translate(148.027 55.6284)"/>
</clipPath>
<clipPath id="clip2">
<rect width="69.0281" height="69.0281" fill="white" transform="translate(111.979)"/>
</clipPath>
<clipPath id="clip3">
<rect width="69.0281" height="69.0281" fill="white" transform="translate(111.979)"/>
</clipPath>
<clipPath id="clip4">
<rect width="140.222" height="140.222" fill="white" transform="translate(0 40.6499)"/>
</clipPath>
</defs>
</svg>
