<svg width="991" height="249" viewBox="0 0 991 249" fill="none" xmlns="http://www.w3.org/2000/svg">
<path d="M32.5411 173.852C41.1179 172.954 50.3073 172.487 59.4246 172.415C59.821 167.604 62.5237 163.08 67.1004 160.603C74.2717 156.761 83.2087 159.418 87.0646 166.563C88.7944 141.896 157.48 127.642 169.264 150.765C170.453 141.896 175.679 133.674 184.183 129.078C198.31 121.502 215.896 126.744 223.535 140.783C223.752 141.178 223.824 141.573 224.004 141.932C228.292 140.927 232.653 140.281 237.049 139.922C235.644 131.915 239.319 123.549 246.923 119.456C255.968 114.609 267.14 117.661 272.581 126.17C275.572 123.728 278.852 121.502 282.383 119.599C291.176 114.86 300.582 112.562 309.915 112.275C314.96 98.7387 324.726 86.8901 338.492 79.4937C362.601 66.532 391.466 71.1637 410.385 88.9366C410.457 77.1958 416.62 65.8139 427.755 59.8178C438.494 54.0371 450.963 54.8629 460.729 60.6795C463.251 44.8455 472.837 30.3399 488.08 22.1177C507.973 11.4181 531.685 14.6136 547.973 28.3293C552.514 19.1735 559.829 11.2386 569.559 6.03238C594.497 -7.36013 625.668 1.90332 639.146 26.7495C639.723 27.7907 640.155 28.8319 640.66 29.9091C645.092 25.6723 650.137 21.9023 655.795 18.8504C689.994 0.467127 732.733 13.1774 751.184 47.2511C754.535 53.4627 756.842 59.9255 758.175 66.4961C777.094 66.2448 795.473 76.1545 805.095 93.8915C807.798 98.8823 809.563 104.124 810.536 109.438C821.672 107.069 833.167 110.408 841.312 118.307C843.474 116.547 845.816 114.932 848.339 113.567C869.168 102.365 894.97 109.582 907.115 129.545C907.763 129.042 908.448 128.54 909.205 128.145C917.061 123.908 926.863 126.852 931.115 134.679C932.917 138.054 933.349 141.753 932.701 145.235C934.791 145.738 936.809 146.384 938.791 147.21C940.196 144.158 942.539 141.501 945.746 139.778C953.602 135.577 963.404 138.485 967.62 146.313C969.314 149.436 969.818 152.883 969.35 156.15C972.053 156.761 974.647 157.623 977.098 158.843C983.909 157.407 991.152 160.459 994.611 166.886C994.972 167.568 995.224 168.25 995.476 168.969C997.494 168.538 999.585 168.215 1001.82 168.215C1009.67 168.215 1016.45 171.195 1020.2 175.611C1020.77 175.611 1021.35 175.611 1021.93 175.611C1044.13 175.683 1062 179.094 1062 183.33C1062 187.567 1044.13 190.978 1022.04 190.978C1021.46 190.978 1020.88 190.978 1020.31 190.942C1016.56 195.359 1009.78 198.339 1001.93 198.339C997.494 198.339 993.35 197.405 989.963 195.789C987.188 200.78 982.791 205.089 976.881 207.925C968.197 212.126 958.323 212.126 949.89 208.931C947.548 211.121 944.917 213.096 941.962 214.675C930.286 220.959 916.736 220.42 905.925 214.46C903.187 217.404 899.907 219.989 896.159 222C879.042 231.228 857.961 225.985 847.005 210.546C844.122 219.056 838.14 226.524 829.6 231.12C811.906 240.635 789.923 234.279 780.013 216.973C773.995 225.16 766.211 232.233 756.625 237.367C726.499 253.596 689.85 245.661 668.876 220.277C664.84 227.206 658.966 233.166 651.362 237.224C629.488 249 602.172 240.85 590.388 219.056C590.208 218.733 590.1 218.409 589.92 218.086C586.965 226.991 580.767 234.818 571.866 239.629C553.343 249.611 530.207 242.717 520.225 224.262C519.54 223.005 518.964 221.713 518.423 220.456C512.838 228.93 505.126 236.182 495.504 241.353C465.954 257.258 429.413 247.349 411.719 219.487C408.007 225.303 402.818 230.33 396.295 233.849C379.142 243.076 358.457 239.091 345.808 225.519C344.33 226.488 342.817 227.422 341.267 228.283C317.339 241.173 288.69 236.685 269.77 219.235C245.878 226.596 218.202 222.898 200.292 210.834C188.256 212.88 175.571 212.988 163.859 211.336C161.588 213.957 158.886 216.255 155.678 218.015C141.552 225.626 123.966 220.384 116.326 206.31C116.254 206.202 116.218 206.058 116.182 205.951C99.3531 205.053 83.7853 201.75 73.8752 196.508C47.9648 197.513 20.6852 195.143 7.49573 190.332C-8.79285 184.408 2.45056 177.047 32.5411 173.852Z" fill="url(#paint0_linear)"/>
<defs>
<linearGradient id="paint0_linear" x1="531.006" y1="248.99" x2="531.006" y2="0.000361869" gradientUnits="userSpaceOnUse">
<stop stop-color="#FFCC7E" stop-opacity="0"/>
<stop offset="0.359375" stop-color="#F7BD67" stop-opacity="0.36"/>
<stop offset="1" stop-color="#CE810E" stop-opacity="0.34"/>
</linearGradient>
</defs>
</svg>
