<svg width="1440" height="249" viewBox="0 0 1440 249" fill="none" xmlns="http://www.w3.org/2000/svg">
<g clip-path="url(#clip0)">
<path d="M639.896 165.581C633.807 164.943 627.283 164.611 620.81 164.56C620.528 161.14 618.609 157.924 615.36 156.163C610.269 153.432 603.923 155.321 601.186 160.4C599.958 142.866 551.192 132.733 542.826 149.17C541.981 142.866 538.271 137.021 532.233 133.754C522.204 128.369 509.718 132.095 504.294 142.075C504.141 142.355 504.089 142.636 503.961 142.891C500.917 142.177 497.821 141.717 494.7 141.462C495.697 135.77 493.088 129.824 487.689 126.914C481.267 123.468 473.336 125.638 469.472 131.687C467.349 129.951 465.021 128.369 462.513 127.016C456.27 123.647 449.593 122.014 442.966 121.81C439.384 112.187 432.45 103.765 422.677 98.5073C405.56 89.2936 385.066 92.586 371.634 105.22C371.583 96.8738 367.208 88.7831 359.302 84.5208C351.678 80.4117 342.825 80.9987 335.891 85.1334C334.1 73.8779 327.295 63.5667 316.472 57.722C302.349 50.1162 285.514 52.3877 273.949 62.1374C270.726 55.6291 265.532 49.9886 258.624 46.2878C240.919 36.7678 218.787 43.3527 209.218 61.0144C208.809 61.7546 208.502 62.4947 208.144 63.2604C204.997 60.2487 201.415 57.5688 197.398 55.3994C173.117 42.3318 142.773 51.3668 129.674 75.5879C127.294 80.0033 125.657 84.5974 124.71 89.2681C111.278 89.0894 98.2292 96.1337 91.3979 108.742C89.479 112.29 88.2253 116.016 87.5345 119.793C79.6286 118.109 71.4669 120.482 65.6846 126.097C64.1495 124.847 62.4865 123.698 60.6955 122.728C45.9072 114.765 27.588 119.895 18.9658 134.086C18.5052 133.729 18.0191 133.371 17.4818 133.091C11.9042 130.079 4.94502 132.172 1.92595 137.736C0.646683 140.135 0.339661 142.764 0.800201 145.239C-0.683754 145.597 -2.11654 146.056 -3.52373 146.643C-4.52156 144.474 -6.18461 142.585 -8.4617 141.36C-14.0393 138.374 -20.9985 140.441 -23.992 146.005C-25.1945 148.226 -25.5527 150.676 -25.2201 152.998C-27.139 153.432 -28.9811 154.045 -30.7209 154.912C-35.5566 153.892 -40.6992 156.061 -43.1554 160.63C-43.4113 161.114 -43.5904 161.599 -43.7695 162.11C-45.2022 161.804 -46.6862 161.574 -48.2725 161.574C-53.8501 161.574 -58.6601 163.692 -61.321 166.832C-61.7304 166.832 -62.1397 166.832 -62.5491 166.832C-78.3097 166.883 -91 169.307 -91 172.319C-91 175.331 -78.3097 177.755 -62.6259 177.755C-62.2165 177.755 -61.8071 177.755 -61.3978 177.73C-58.7369 180.869 -53.9268 182.987 -48.3492 182.987C-45.2022 182.987 -42.2599 182.324 -39.8549 181.175C-37.8848 184.723 -34.7634 187.786 -30.5674 189.802C-24.4014 192.788 -17.391 192.788 -11.404 190.517C-9.74096 192.074 -7.87323 193.477 -5.77523 194.6C2.51442 199.067 12.1345 198.684 19.8101 194.447C21.7546 196.54 24.0829 198.378 26.7437 199.807C38.8968 206.366 53.8642 202.64 61.6421 191.665C63.689 197.714 67.9361 203.023 73.9998 206.29C86.5622 213.053 102.169 208.536 109.205 196.234C113.478 202.053 119.004 207.081 125.81 210.731C147.199 222.267 173.22 216.626 188.11 198.582C190.976 203.508 195.146 207.744 200.545 210.629C216.075 219 235.469 213.206 243.835 197.714C243.963 197.484 244.04 197.255 244.168 197.025C246.266 203.355 250.667 208.919 256.986 212.339C270.137 219.434 286.563 214.534 293.65 201.415C294.136 200.522 294.545 199.603 294.929 198.709C298.895 204.733 304.37 209.888 311.202 213.564C332.181 224.87 358.125 217.826 370.687 198.02C373.323 202.155 377.007 205.728 381.638 208.229C393.817 214.789 408.503 211.956 417.483 202.308C418.532 202.997 419.607 203.661 420.707 204.273C437.695 213.436 458.036 210.246 471.468 197.842C488.431 203.074 508.081 200.445 520.797 191.869C529.342 193.324 538.348 193.401 546.663 192.227C548.275 194.09 550.194 195.723 552.471 196.974C562.501 202.385 574.986 198.658 580.411 188.654C580.462 188.577 580.487 188.475 580.513 188.398C592.461 187.76 603.514 185.412 610.55 181.686C628.946 182.4 648.314 180.716 657.678 177.296C669.243 173.085 661.26 167.852 639.896 165.581Z" fill="url(#paint0_linear)"/>
</g>
<g clip-path="url(#clip1)">
<path d="M564.541 173.852C573.118 172.954 582.307 172.487 591.425 172.415C591.821 167.604 594.524 163.08 599.1 160.603C606.272 156.761 615.209 159.418 619.065 166.563C620.794 141.896 689.48 127.642 701.264 150.765C702.453 141.896 707.679 133.674 716.183 129.078C730.31 121.502 747.896 126.744 755.535 140.783C755.752 141.178 755.824 141.573 756.004 141.932C760.292 140.927 764.653 140.281 769.049 139.922C767.644 131.915 771.319 123.549 778.923 119.456C787.968 114.609 799.14 117.661 804.581 126.17C807.572 123.728 810.852 121.502 814.383 119.599C823.176 114.86 832.582 112.562 841.915 112.275C846.96 98.7387 856.726 86.8901 870.492 79.4937C894.601 66.5321 923.466 71.1638 942.385 88.9367C942.457 77.1958 948.62 65.8139 959.755 59.8178C970.494 54.0372 982.963 54.863 992.729 60.6796C995.251 44.8455 1004.84 30.34 1020.08 22.1178C1039.97 11.4181 1063.68 14.6137 1079.97 28.3293C1084.51 19.1736 1091.83 11.2386 1101.56 6.03241C1126.5 -7.3601 1157.67 1.90335 1171.15 26.7495C1171.72 27.7907 1172.16 28.832 1172.66 29.9091C1177.09 25.6724 1182.14 21.9023 1187.79 18.8504C1221.99 0.467157 1264.73 13.1775 1283.18 47.2512C1286.54 53.4627 1288.84 59.9256 1290.18 66.4961C1309.09 66.2448 1327.47 76.1545 1337.09 93.8915C1339.8 98.8823 1341.56 104.124 1342.54 109.438C1353.67 107.069 1365.17 110.408 1373.31 118.307C1375.47 116.547 1377.82 114.932 1380.34 113.567C1401.17 102.365 1426.97 109.582 1439.11 129.545C1439.76 129.042 1440.45 128.54 1441.2 128.145C1449.06 123.908 1458.86 126.852 1463.11 134.679C1464.92 138.054 1465.35 141.753 1464.7 145.235C1466.79 145.738 1468.81 146.384 1470.79 147.21C1472.2 144.158 1474.54 141.501 1477.75 139.778C1485.6 135.577 1495.4 138.485 1499.62 146.313C1501.31 149.436 1501.82 152.883 1501.35 156.151C1504.05 156.761 1506.65 157.623 1509.1 158.843C1515.91 157.407 1523.15 160.459 1526.61 166.886C1526.97 167.568 1527.22 168.25 1527.48 168.969C1529.49 168.538 1531.58 168.215 1533.82 168.215C1541.67 168.215 1548.45 171.195 1552.2 175.611C1552.77 175.611 1553.35 175.611 1553.93 175.611C1576.13 175.683 1594 179.094 1594 183.33C1594 187.567 1576.13 190.978 1554.04 190.978C1553.46 190.978 1552.88 190.978 1552.31 190.942C1548.56 195.359 1541.78 198.339 1533.93 198.339C1529.49 198.339 1525.35 197.405 1521.96 195.789C1519.19 200.78 1514.79 205.089 1508.88 207.925C1500.2 212.126 1490.32 212.126 1481.89 208.931C1479.55 211.121 1476.92 213.096 1473.96 214.675C1462.29 220.959 1448.74 220.42 1437.93 214.46C1435.19 217.404 1431.91 219.989 1428.16 222C1411.04 231.228 1389.96 225.985 1379.01 210.546C1376.12 219.056 1370.14 226.524 1361.6 231.12C1343.91 240.635 1321.92 234.279 1312.01 216.973C1306 225.16 1298.21 232.233 1288.63 237.367C1258.5 253.596 1221.85 245.661 1200.88 220.277C1196.84 227.206 1190.97 233.166 1183.36 237.224C1161.49 249 1134.17 240.85 1122.39 219.056C1122.21 218.733 1122.1 218.41 1121.92 218.086C1118.96 226.991 1112.77 234.818 1103.87 239.629C1085.34 249.611 1062.21 242.717 1052.23 224.262C1051.54 223.005 1050.96 221.713 1050.42 220.456C1044.84 228.93 1037.13 236.182 1027.5 241.353C997.954 257.259 961.413 247.349 943.719 219.487C940.007 225.303 934.818 230.33 928.295 233.849C911.142 243.076 890.457 239.091 877.808 225.519C876.33 226.488 874.817 227.422 873.267 228.283C849.339 241.173 820.69 236.685 801.77 219.235C777.878 226.596 750.202 222.898 732.292 210.834C720.256 212.88 707.571 212.988 695.859 211.336C693.588 213.957 690.886 216.255 687.678 218.015C673.552 225.626 655.966 220.384 648.326 206.31C648.254 206.202 648.218 206.058 648.182 205.951C631.353 205.053 615.785 201.75 605.875 196.508C579.965 197.513 552.685 195.143 539.496 190.332C523.207 184.408 534.451 177.047 564.541 173.852Z" fill="url(#paint1_linear)"/>
</g>
<defs>
<linearGradient id="paint0_linear" x1="285.996" y1="218.993" x2="285.996" y2="42" gradientUnits="userSpaceOnUse">
<stop stop-color="#FFCC7E" stop-opacity="0"/>
<stop offset="0.359375" stop-color="#F7BD67" stop-opacity="0.36"/>
<stop offset="1" stop-color="#CE810E" stop-opacity="0.34"/>
</linearGradient>
<linearGradient id="paint1_linear" x1="1063.01" y1="248.99" x2="1063.01" y2="0.000392387" gradientUnits="userSpaceOnUse">
<stop stop-color="#FFCC7E" stop-opacity="0"/>
<stop offset="0.359375" stop-color="#F7BD67" stop-opacity="0.36"/>
<stop offset="1" stop-color="#CE810E" stop-opacity="0.34"/>
</linearGradient>
<clipPath id="clip0">
<rect width="754" height="177" fill="white" transform="translate(-91 42)"/>
</clipPath>
<clipPath id="clip1">
<rect width="1062" height="249" fill="white" transform="matrix(-1 0 0 1 1594 0)"/>
</clipPath>
</defs>
</svg>
