<svg width="29" height="30" viewBox="0 0 29 30" fill="none" xmlns="http://www.w3.org/2000/svg">
<g clip-path="url(#clip0)">
<path d="M21.2669 11.0299L14.5 23.1547L7.73309 11.0299H21.2669Z" fill="#EED0A4"/>
<path d="M21.2669 11.0299L14.5 0.585938L7.73309 11.0299H21.2669Z" fill="#F1D5AC"/>
<path d="M21.2669 11.0299L14.5 0.585938L26.7324 7.81904L21.2669 11.0299Z" fill="#EED0A4"/>
<path d="M7.73315 11.0299L14.5 0.585938L2.26761 7.81904L7.73315 11.0299Z" fill="#EED0A4"/>
<path d="M21.2669 11.0299L14.5 23.1547L26.7324 21.9955L21.2669 11.0299Z" fill="#BD9F73"/>
<path d="M21.2669 11.0299L26.7324 7.81903V21.9955L21.2669 11.0299Z" fill="#BD9F73"/>
<path d="M7.73314 11.0299L2.26761 7.81903V21.9955L7.73314 11.0299Z" fill="#BD9F73"/>
<path d="M14.5 29.4141V23.1547L26.7324 21.9955L14.5 29.4141Z" fill="#8B6E43"/>
<path d="M14.5 29.4141V23.1547L2.26761 21.9955L14.5 29.4141Z" fill="#8B6E43"/>
<path d="M7.73315 11.0299L14.5 23.1547L2.26761 21.9955L7.73315 11.0299Z" fill="#BD9F73"/>
<path d="M27.0134 7.31039L14.7811 0.0772253C14.6069 -0.0257825 14.393 -0.0257825 14.2189 0.0772253L1.98656 7.31039C1.81012 7.41469 1.7012 7.60887 1.7012 7.8191V21.9955C1.7012 22.2035 1.80774 22.3958 1.98112 22.501L14.2135 29.9195C14.302 29.9732 14.401 30 14.5 30C14.599 30 14.698 29.9732 14.7865 29.9195L27.0189 22.501C27.1923 22.3958 27.2988 22.2035 27.2988 21.9955V7.81904C27.2988 7.60881 27.1899 7.41469 27.0134 7.31039ZM2.83401 8.82568L6.98039 11.2616L2.83401 19.5805V8.82568ZM17.0488 11.6159H20.2858L14.5 21.9828L8.71416 11.6159H11.9512C12.264 11.6159 12.5176 11.3535 12.5176 11.0299C12.5176 10.7063 12.264 10.444 11.9512 10.444H8.79465L14.5 1.63834L20.2054 10.444H17.0488C16.736 10.444 16.4824 10.7063 16.4824 11.0299C16.4824 11.3535 16.736 11.6159 17.0488 11.6159ZM13.4627 22.468L3.15619 21.4913L7.76118 12.2522L13.4627 22.468ZM21.2388 12.2521L25.8438 21.4913L15.5373 22.468L21.2388 12.2521ZM21.4445 10.2517L16.3143 2.33361L25.5883 7.8174L21.4445 10.2517ZM7.55546 10.2517L3.41181 7.8174L12.6858 2.33361L7.55546 10.2517ZM13.9336 23.6894V28.3914L4.74479 22.8186L13.9336 23.6894ZM15.0664 23.6894L24.2552 22.8186L15.0664 28.3914V23.6894ZM22.0196 11.2615L26.166 8.82562V19.5805L22.0196 11.2615Z" fill="black"/>
<path d="M14.5 11.6159C14.8128 11.6159 15.0664 11.3535 15.0664 11.0299C15.0664 10.7063 14.8128 10.444 14.5 10.444C14.1872 10.444 13.9336 10.7063 13.9336 11.0299C13.9336 11.3535 14.1872 11.6159 14.5 11.6159Z" fill="black"/>
</g>
<defs>
<clipPath id="clip0">
<rect width="29" height="30" fill="white"/>
</clipPath>
</defs>
</svg>
