<svg width="532" height="186" viewBox="0 0 532 186" fill="none" xmlns="http://www.w3.org/2000/svg">
<g clip-path="url(#clip0)">
<path opacity="0.5" d="M200.841 162.525C203.154 162.173 205.311 162.061 206.975 162.159C207.229 160.722 209.02 159.51 211.304 159.341C213.617 159.172 215.591 160.13 216.014 161.539C216.944 160.553 218.242 159.933 219.708 159.933C221.048 159.933 222.246 160.454 223.163 161.3C224.22 159.806 225.913 158.806 227.844 158.637C228.465 156.819 230.157 155.508 232.187 155.508C232.892 155.508 233.555 155.678 234.147 155.959C235.614 153.353 238.406 151.591 241.621 151.591C243.792 151.591 245.752 152.395 247.275 153.719C249.32 152.169 251.858 151.253 254.608 151.253C256.37 151.253 258.034 151.634 259.543 152.296C260.079 148.083 263.675 144.814 268.046 144.814C268.666 144.814 269.287 144.884 269.865 145.011C269.865 144.941 269.851 144.884 269.851 144.814C269.851 140.08 273.686 136.233 278.424 136.233C279.059 136.233 279.679 136.303 280.285 136.444C282.626 127.807 290.495 121.452 299.886 121.452C304.299 121.452 308.389 122.875 311.716 125.271C312.52 117.803 318.837 111.969 326.536 111.969C330.879 111.969 334.771 113.829 337.493 116.788C338.705 103.205 350.113 92.5528 364.016 92.5528C370.418 92.5528 376.284 94.8073 380.867 98.5553C387.17 89.763 397.506 84 409.181 84C425.976 84 439.992 95.8922 443.249 111.702C445.632 111.011 448.142 110.631 450.737 110.631C464.626 110.631 476.062 121.072 477.627 134.528C479.249 133.964 480.983 133.64 482.802 133.64C488.682 133.64 493.801 136.867 496.522 141.63C498.186 141.136 499.949 140.869 501.768 140.869C508.24 140.869 513.923 144.18 517.236 149.21C518.491 148.365 520.014 147.872 521.65 147.872C525.246 147.872 528.277 150.281 529.236 153.564C529.955 153.254 530.745 153.071 531.591 153.071C531.732 153.071 531.859 153.099 532 153.099V169.176C531.647 168.923 531.323 168.641 531.027 168.317C529.575 170.162 527.333 171.346 524.809 171.346C522.073 171.346 519.648 169.951 518.238 167.838C515.164 173.812 508.959 177.898 501.782 177.898C495.986 177.898 490.825 175.235 487.427 171.078C484.974 176.94 479.178 181.054 472.424 181.054C465.134 181.054 458.958 176.264 456.899 169.655C454.572 175.785 448.664 180.153 441.712 180.153C435.522 180.153 430.135 176.686 427.386 171.586C422.634 179.42 414.06 184.661 404.218 184.661C396.646 184.661 389.821 181.562 384.9 176.559C381.868 181.421 376.496 184.661 370.348 184.661C365.229 184.661 360.632 182.407 357.488 178.856C352.341 183.323 345.629 186.014 338.268 186.014C329.399 186.014 321.46 182.083 316.088 175.883C312.76 178.546 308.544 180.153 303.947 180.153C297.503 180.153 291.82 177.01 288.281 172.191C285.587 174.883 281.865 176.545 277.747 176.545C272.431 176.545 267.778 173.755 265.141 169.571C263.026 173.192 259.106 175.644 254.608 175.644C251.068 175.644 247.896 174.136 245.668 171.726C244.23 172.84 242.439 173.502 240.493 173.502C237.377 173.502 234.655 171.811 233.189 169.317C232.004 170.627 230.312 171.473 228.408 171.473C226.237 171.473 224.333 170.388 223.163 168.753C222.26 169.599 221.048 170.12 219.708 170.12C218.171 170.12 216.818 169.43 215.887 168.359C215.168 168.993 214.237 169.387 213.208 169.387C211.939 169.387 210.825 168.796 210.077 167.894C209.006 168.486 207.201 168.838 205.156 168.768C202.858 168.683 200.912 168.105 199.981 167.302C195.61 167.795 192.169 167.373 192 166.245C191.817 164.963 195.765 163.315 200.841 162.525Z" fill="url(#paint0_linear)"/>
</g>
<g clip-path="url(#clip1)">
<path d="M326.385 83.1486C323.606 82.7761 321.024 82.6563 319.016 82.7627C318.699 81.2461 316.555 79.969 313.822 79.7827C311.058 79.5965 308.688 80.6208 308.159 82.1109C307.042 81.0732 305.471 80.408 303.72 80.408C302.119 80.408 300.67 80.9667 299.582 81.8581C298.299 80.2749 296.276 79.2106 293.95 79.0377C293.21 77.1087 291.172 75.7251 288.741 75.7251C287.895 75.7251 287.11 75.9113 286.385 76.204C284.618 73.4501 281.266 71.5743 277.416 71.5743C274.819 71.5743 272.448 72.4257 270.636 73.8226C268.175 72.1863 265.139 71.2018 261.818 71.2018C259.703 71.2018 257.71 71.6009 255.898 72.3193C255.249 67.8492 250.93 64.4035 245.691 64.4035C244.936 64.4035 244.211 64.4701 243.501 64.6164C243.501 64.5499 243.516 64.4834 243.516 64.4035C243.516 59.388 238.911 55.3304 233.218 55.3304C232.448 55.3304 231.708 55.4102 230.983 55.5432C228.175 46.4035 218.722 39.6718 207.443 39.6718C202.143 39.6718 197.235 41.1752 193.234 43.7162C192.267 35.8004 184.672 29.6408 175.446 29.6408C170.236 29.6408 165.556 31.6231 162.279 34.7494C160.829 20.3548 147.134 9.07317 130.433 9.07317C122.747 9.07317 115.711 11.4678 110.184 15.4324C102.619 6.09313 90.222 0 76.1942 0C56.0207 0 39.1994 12.5854 35.2885 29.3348C32.4346 28.6031 29.4146 28.204 26.289 28.204C15.4623 28.204 5.90407 32.8736 0 40.031V102.745C0.0905995 102.745 0.166099 102.758 0.256699 102.758C9.01465 102.758 16.4136 97.6763 18.89 90.6918C21.6835 97.184 28.7804 101.814 37.1307 101.814C44.575 101.814 51.0377 98.1419 54.3295 92.7539C60.0373 101.042 70.3354 106.603 82.1436 106.603C91.2337 106.603 99.433 103.317 105.337 98.0222C108.976 103.171 115.439 106.603 122.823 106.603C128.984 106.603 134.48 104.222 138.255 100.457C144.446 105.18 152.509 108.04 161.328 108.04C171.973 108.04 181.501 103.876 187.964 97.3038C191.965 100.124 197.024 101.827 202.535 101.827C210.266 101.827 217.107 98.5011 221.35 93.3925C224.581 96.2395 229.051 98.0089 234.003 98.0089C240.391 98.0089 245.978 95.0554 249.149 90.6253C251.685 94.4701 256.397 97.051 261.802 97.051C266.045 97.051 269.866 95.4546 272.538 92.9002C274.26 94.071 276.404 94.7761 278.76 94.7761C282.504 94.7761 285.766 92.9934 287.533 90.3326C288.952 91.7295 290.991 92.6208 293.271 92.6208C295.883 92.6208 298.163 91.4767 299.567 89.7339C300.654 90.6253 302.104 91.184 303.705 91.184C305.547 91.184 307.178 90.4523 308.295 89.3215C309.156 89.9867 310.273 90.3991 311.511 90.3991C313.036 90.3991 314.365 89.7738 315.271 88.816C316.555 89.4412 318.729 89.8138 321.19 89.7472C323.939 89.6674 326.279 89.0421 327.396 88.204C332.636 88.7228 336.773 88.2705 336.985 87.0865C337.226 85.7295 332.485 83.9734 326.385 83.1486Z" fill="url(#paint1_linear)"/>
</g>
<defs>
<linearGradient id="paint0_linear" x1="361.995" y1="186.03" x2="361.995" y2="84.0418" gradientUnits="userSpaceOnUse">
<stop stop-color="#FFCC7E" stop-opacity="0"/>
<stop offset="0.359375" stop-color="#F7BD67" stop-opacity="0.36"/>
<stop offset="1" stop-color="#CE810E" stop-opacity="0.34"/>
</linearGradient>
<linearGradient id="paint1_linear" x1="168.499" y1="108.057" x2="168.499" y2="0.0442682" gradientUnits="userSpaceOnUse">
<stop stop-color="#FFCC7E" stop-opacity="0"/>
<stop offset="0.359375" stop-color="#F7BD67" stop-opacity="0.36"/>
<stop offset="1" stop-color="#CE810E" stop-opacity="0.34"/>
</linearGradient>
<clipPath id="clip0">
<rect width="340" height="102" fill="white" transform="matrix(-1 0 0 1 532 84)"/>
</clipPath>
<clipPath id="clip1">
<rect width="337" height="108" fill="white"/>
</clipPath>
</defs>
</svg>
