<svg width="930" height="227" viewBox="0 0 930 227" fill="none" xmlns="http://www.w3.org/2000/svg">
<path d="M892.924 158.491C883.152 157.673 872.682 157.247 862.294 157.182C861.843 152.795 858.763 148.671 853.549 146.413C845.378 142.91 835.195 145.332 830.802 151.846C828.831 129.359 750.573 116.364 737.147 137.444C735.792 129.359 729.839 121.863 720.149 117.673C704.054 110.767 684.017 115.546 675.313 128.344C675.066 128.704 674.984 129.064 674.779 129.392C669.893 128.475 664.925 127.886 659.916 127.559C661.517 120.259 657.329 112.633 648.666 108.901C638.36 104.482 625.632 107.264 619.432 115.022C616.024 112.796 612.288 110.767 608.264 109.032C598.246 104.711 587.529 102.616 576.895 102.355C571.147 90.0144 560.02 79.2127 544.336 72.4698C516.867 60.6534 483.979 64.8759 462.423 81.0785C462.341 70.3749 455.32 59.9987 442.633 54.5324C430.398 49.2625 416.191 50.0153 405.064 55.318C402.19 40.8829 391.269 27.659 373.901 20.1632C351.236 10.409 324.22 13.3221 305.661 25.826C300.488 17.4792 292.153 10.2453 281.067 5.49908C252.655 -6.71015 217.139 1.73484 201.783 24.3857C201.126 25.335 200.633 26.2842 200.058 27.2662C195.008 23.4038 189.26 19.9669 182.814 17.1846C143.849 0.425537 95.1534 12.0128 74.1313 43.076C70.3128 48.7387 67.6851 54.6306 66.1659 60.6206C44.6101 60.3915 23.6702 69.4257 12.7075 85.5955C9.62808 90.1454 7.61621 94.9243 6.50763 99.7687C-6.1795 97.6084 -19.2772 100.653 -28.5565 107.854C-31.02 106.25 -33.6888 104.777 -36.5629 103.533C-60.2949 93.3204 -89.6929 99.8997 -103.53 118.099C-104.269 117.641 -105.049 117.182 -105.911 116.822C-114.862 112.96 -126.03 115.644 -130.875 122.78C-132.928 125.857 -133.42 129.228 -132.681 132.403C-135.063 132.861 -137.362 133.451 -139.62 134.203C-141.222 131.421 -143.89 128.999 -147.545 127.428C-156.495 123.598 -167.663 126.249 -172.467 133.385C-174.397 136.233 -174.972 139.375 -174.438 142.354C-177.517 142.91 -180.474 143.696 -183.266 144.809C-191.026 143.499 -199.279 146.282 -203.22 152.141C-203.631 152.763 -203.918 153.385 -204.206 154.039C-206.505 153.646 -208.886 153.352 -211.432 153.352C-220.383 153.352 -228.102 156.069 -232.372 160.095C-233.029 160.095 -233.686 160.095 -234.343 160.095C-259.635 160.16 -280 163.27 -280 167.132C-280 170.995 -259.635 174.104 -234.466 174.104C-233.809 174.104 -233.152 174.104 -232.495 174.072C-228.225 178.098 -220.506 180.814 -211.555 180.814C-206.505 180.814 -201.783 179.963 -197.924 178.49C-194.762 183.04 -189.753 186.968 -183.019 189.554C-173.124 193.384 -161.874 193.384 -152.266 190.471C-149.598 192.467 -146.6 194.268 -143.233 195.708C-129.93 201.436 -114.492 200.945 -102.175 195.511C-99.0543 198.195 -95.3179 200.552 -91.0479 202.385C-71.545 210.797 -47.5256 206.018 -35.0438 191.943C-31.7591 199.701 -24.9433 206.509 -15.2124 210.699C4.94739 219.373 29.9932 213.58 41.2843 197.803C48.1411 205.266 57.0098 211.714 67.9314 216.395C102.257 231.19 144.013 223.956 167.909 200.814C172.508 207.131 179.201 212.565 187.864 216.264C212.787 227 243.909 219.57 257.335 199.701C257.541 199.407 257.664 199.112 257.869 198.817C261.236 206.935 268.298 214.071 278.439 218.457C299.544 227.556 325.903 221.272 337.276 204.447C338.057 203.302 338.714 202.123 339.329 200.978C345.694 208.703 354.48 215.315 365.443 220.028C399.111 234.529 440.744 225.494 460.904 200.094C465.133 205.397 471.046 209.979 478.477 213.187C498.021 221.599 521.589 217.966 536.001 205.593C537.684 206.477 539.409 207.328 541.174 208.113C568.437 219.864 601.079 215.773 622.635 199.865C649.856 206.575 681.39 203.203 701.796 192.205C715.509 194.071 729.962 194.169 743.306 192.664C745.893 195.053 748.972 197.148 752.626 198.752C768.721 205.691 788.758 200.912 797.463 188.081C797.545 187.983 797.586 187.852 797.627 187.754C816.801 186.935 834.539 183.924 845.83 179.145C875.351 180.062 906.432 177.901 921.46 173.515C940.018 168.114 927.208 161.404 892.924 158.491Z" fill="url(#paint0_linear)"/>
<defs>
<linearGradient id="paint0_linear" x1="324.993" y1="226.991" x2="324.993" y2="1.27065e-05" gradientUnits="userSpaceOnUse">
<stop stop-color="#FFCC7E" stop-opacity="0"/>
<stop offset="0.458333" stop-color="#F7BD67" stop-opacity="0.47"/>
<stop offset="1" stop-color="#CE810E" stop-opacity="0.46"/>
</linearGradient>
</defs>
</svg>
