<svg width="31" height="32" viewBox="0 0 31 32" fill="none" xmlns="http://www.w3.org/2000/svg">
<g clip-path="url(#clip0)">
<path d="M13.7228 2.01767C13.7228 0.90359 14.5981 0 15.6781 0C16.7566 0 17.6326 0.902086 17.6326 2.01767C17.6326 3.13325 16.758 4.03608 15.6781 4.03608C14.5974 4.03608 13.7228 3.13249 13.7228 2.01767ZM20.941 30.7912H20.9381C20.9235 30.7333 20.906 30.6702 20.8863 30.6048C21.3568 29.9741 21.6291 29.2148 21.5702 28.2684C21.5097 27.2836 20.9832 26.2079 20.4378 25.3787H20.4225C20.4392 25.3231 20.4531 25.2659 20.4662 25.2095H20.4756C20.6002 25.2043 20.9046 24.9637 20.8252 24.6615C20.7341 24.2857 20.3992 24.203 20.2797 24.203H20.2608C20.2317 24.1398 20.1931 24.0714 20.1436 23.9992H20.1545C18.9697 21.7583 17.8409 19.7835 17.5227 14.6491H17.5205L17.5336 14.5033C18.2807 14.5033 18.9136 14.5033 18.9391 14.5025C19.0257 14.4913 19.6105 14.1785 19.5566 13.5982C19.4925 12.8713 18.8859 12.5608 18.8036 12.5608C18.7759 12.5608 18.3572 12.5608 17.8132 12.5608L17.8169 12.539C17.6472 9.65833 19.0461 7.08363 20.1465 6.28378C20.5004 6.02744 20.9847 5.4486 20.512 4.75099C20.1712 4.24807 19.6593 4.2616 19.4408 4.32475C19.2209 4.38715 18.7956 4.75099 18.2968 4.75099C17.8635 4.75099 17.4447 4.5623 17.0974 4.32851L16.9539 4.21274L16.9444 4.22026L16.9313 4.21199L16.8585 4.2819C16.5002 4.54276 16.0691 4.79985 15.6111 4.79985C15.1086 4.79985 14.6483 4.49615 14.2711 4.21199C13.8939 4.49615 13.4103 4.74948 12.9079 4.74948C12.409 4.74948 11.983 4.38564 11.7631 4.32325C11.5446 4.2601 11.0327 4.24657 10.6919 4.74948C10.2192 5.4471 10.7042 6.02594 11.0567 6.28228C12.1607 7.08438 13.5655 9.66961 13.387 12.5608C12.7841 12.5608 12.2903 12.5608 12.259 12.5608C12.176 12.5608 11.5344 12.8216 11.4711 13.5471C11.4157 14.1289 12.0354 14.492 12.1228 14.5025C12.152 14.5033 12.8729 14.5033 13.6696 14.5033L13.7198 14.6491H13.7038C13.3841 19.7827 12.2823 21.6914 11.0815 23.9992H11.0873C11.0392 24.0737 11.0065 24.1406 10.9817 24.203H10.9162C10.796 24.203 10.4617 24.2857 10.3707 24.6615C10.2935 24.954 10.5753 25.1885 10.7072 25.208C10.697 25.2622 10.6882 25.3178 10.6817 25.3802H10.6744C10.2018 26.1319 9.50048 27.1114 9.43276 28.0819C9.3643 29.0404 9.6454 29.9688 10.1144 30.601C10.1013 30.6709 10.0918 30.7371 10.0889 30.7957H10.0619C10.0619 30.7957 9.76119 31.0235 9.65997 31.2671C9.55801 31.5121 9.55583 32.0015 9.55583 32.0015H21.4456C21.4456 32.0015 21.418 31.5159 21.3298 31.2851C21.2439 31.049 20.941 30.7912 20.941 30.7912Z" fill="black"/>
</g>
<defs>
<clipPath id="clip0">
<rect width="31" height="32" fill="white"/>
</clipPath>
</defs>
</svg>
