<svg width="37" height="37" viewBox="0 0 37 37" fill="none" xmlns="http://www.w3.org/2000/svg">
<path d="M11.3057 21.6429C11.0276 21.8985 10.7177 22.1171 10.3836 22.2933C11.4558 22.5424 13.8855 22.4938 18.3686 19.5585C20.1788 18.3733 21.6696 18.7451 22.6016 19.2657C23.1199 19.5617 23.5816 19.9473 23.9653 20.4045C24.3959 20.1503 24.859 19.8817 25.3659 19.5907C24.5473 18.6729 24.0736 16.794 23.9567 13.9868C23.9038 12.7202 23.9355 11.5009 23.9764 10.6395C23.0402 11.6536 21.6639 12.4473 19.878 12.9892C17.8844 13.5942 15.9665 13.7165 15.2479 13.7412C14.7392 16.2262 13.6472 19.4861 11.3057 21.6429ZM20.9117 13.5468C21.3649 13.5468 21.808 13.6812 22.1848 13.9331C22.5617 14.1849 22.8554 14.5428 23.0288 14.9615C23.2023 15.3802 23.2477 15.841 23.1592 16.2855C23.0708 16.7301 22.8526 17.1384 22.5321 17.4589C22.2116 17.7794 21.8033 17.9976 21.3587 18.086C20.9142 18.1745 20.4534 18.1291 20.0347 17.9556C19.616 17.7822 19.2581 17.4885 19.0062 17.1116C18.7544 16.7348 18.62 16.2917 18.62 15.8385C18.6207 15.2309 18.8624 14.6484 19.292 14.2188C19.7216 13.7892 20.3041 13.5475 20.9117 13.5468Z" fill="black"/>
<path d="M14.8088 12.0011C14.8541 11.6575 14.8867 11.3513 14.9099 11.0934C14.9512 10.6358 14.6379 10.2068 14.1651 10.0733C14.0102 10.0288 13.8475 10.0187 13.6883 10.0436C13.529 10.0686 13.3772 10.1281 13.2434 10.2179C13.1238 10.2957 13.023 10.3991 12.9481 10.5205C12.8732 10.642 12.8261 10.7785 12.8103 10.9204C12.7779 11.2195 12.7388 11.5184 12.6953 11.8168C13.3528 12.1374 14.1057 12.203 14.8088 12.0011Z" fill="black"/>
<path d="M13.1753 17.8034C13.5097 17.0967 13.7933 16.3671 14.0238 15.6201C13.8709 15.6465 13.716 15.6598 13.5608 15.6598C12.9048 15.6598 12.3191 15.4353 11.9436 15.2475C11.7372 15.9466 11.5028 16.6263 11.2407 17.2757C11.4937 17.5013 12.1094 17.9082 13.1753 17.8034Z" fill="black"/>
<path d="M14.2574 14.8084C14.4507 14.0799 14.5916 13.3863 14.6942 12.7686C14.4608 12.8134 14.2237 12.8362 13.986 12.8368C13.5022 12.8371 13.0232 12.7413 12.5768 12.5549C12.4586 13.2237 12.3136 13.886 12.1432 14.5346C12.5364 14.7499 13.4189 15.1324 14.2574 14.8084Z" fill="black"/>
<path d="M26.843 9.1828C26.3585 8.76895 25.8493 8.38499 25.3182 8.03305C25.2131 8.56209 25.0275 9.0719 24.7679 9.5447C24.7182 10.1182 24.6724 10.911 24.6554 11.802C25.36 11.5553 26.6877 10.8688 26.843 9.1828Z" fill="black"/>
<path d="M11.324 20.6029C11.8937 19.977 12.3872 19.2856 12.794 18.5434C11.9157 18.5339 11.3102 18.2302 10.9476 17.9643C10.8481 18.1867 10.7465 18.4062 10.6408 18.6197C10.392 19.1261 10.1148 19.6181 9.81056 20.0934C9.97367 20.3309 10.3945 20.7345 11.324 20.6029Z" fill="black"/>
<path d="M25.908 11.9801C25.5185 12.2336 25.0944 12.4293 24.6487 12.5611C24.6512 15.1543 24.9283 18.239 26.0116 19.2214C26.2504 19.0852 26.4989 18.9439 26.757 18.7974C31.7467 15.9651 30.2835 12.8187 30.1076 12.4822C29.2917 11.5164 28.4158 10.6031 27.4849 9.74762C27.2783 10.6681 26.7424 11.4315 25.908 11.9801Z" fill="black"/>
<path d="M20.9117 17.4074C21.222 17.4074 21.5253 17.3154 21.7833 17.143C22.0413 16.9706 22.2424 16.7256 22.3612 16.4389C22.4799 16.1522 22.511 15.8367 22.4505 15.5324C22.3899 15.228 22.2405 14.9485 22.0211 14.729C21.8017 14.5096 21.5221 14.3602 21.2177 14.2996C20.9134 14.2391 20.5979 14.2702 20.3112 14.3889C20.0246 14.5077 19.7795 14.7088 19.6071 14.9668C19.4347 15.2248 19.3427 15.5281 19.3427 15.8385C19.3432 16.2544 19.5086 16.6532 19.8027 16.9474C20.0969 17.2415 20.4957 17.407 20.9117 17.4074Z" fill="black"/>
<path d="M24.6554 7.634C23.922 7.23249 23.1974 6.97638 22.5416 6.97638C22.5131 6.97638 22.4852 6.97689 22.4571 6.97782C21.8035 7.00023 21.2856 7.29384 20.8736 7.87551C18.5507 11.1549 16.3903 11.7096 15.5627 11.7958C15.5198 12.1558 15.4619 12.566 15.3853 13.0113C16.1716 12.9735 17.9177 12.8306 19.6823 12.2935C22.6665 11.3843 24.3382 9.81736 24.6554 7.634Z" fill="black"/>
<path d="M33.009 16.315C32.9311 14.999 31.8805 13.8837 31.0923 13.2255C31.2041 13.8728 31.1709 14.5369 30.9952 15.1698C30.5525 16.7832 29.2463 18.2152 27.1138 19.4259C21.6903 22.5044 20.8267 23.1052 15.5666 27.4618C13.332 29.3126 9.91722 30.1699 6.84724 30.17C5.30516 30.17 3.8506 29.9539 2.67527 29.5388C2.66971 29.5368 2.66458 29.5347 2.65901 29.5327C2.66689 29.5378 2.6744 29.5431 2.68243 29.5483C3.95921 30.3749 6.43699 31.2104 10.991 30.495C15.2516 29.826 18.1258 27.6425 21.1792 25.0702C23.7411 22.912 25.2044 22.4169 26.6202 21.938C27.8806 21.5117 29.0712 21.1088 31.063 19.574C32.4203 18.5289 33.075 17.4319 33.009 16.315Z" fill="black"/>
<path d="M10.5696 21.3176C10.1181 21.2523 9.70104 21.0388 9.38406 20.7106C8.94678 21.2978 8.49707 21.7665 8.04649 22.1035C8.95356 22.1446 9.84634 21.8665 10.5696 21.3176Z" fill="black"/>
<path d="M2.91599 28.8576C4.52751 29.427 6.79983 29.5951 8.99418 29.308C11.4533 28.9862 13.6237 28.133 15.1056 26.9056C15.4602 26.6118 15.7945 26.3355 16.1122 26.0738C14.902 25.686 11.8268 25.0061 7.8677 26.3773C6.46943 26.8615 5.29743 27.0374 4.33391 27.0374C2.60763 27.0374 1.54901 26.4744 1.04648 26.1124C0.735735 26.6693 0.798534 27.0401 0.807061 27.0807C0.810403 27.0908 0.812822 27.1011 0.814288 27.1116C0.95564 27.8089 1.702 28.4289 2.91599 28.8576Z" fill="black"/>
<path d="M7.63126 25.6948C12.3925 24.0455 15.8828 25.1848 16.7667 25.5361C19.5542 23.254 20.9834 22.1978 23.3371 20.779C22.7416 20.1019 21.0795 18.6472 18.7645 20.163C15.1558 22.5261 12.7561 23.111 11.2648 23.111C10.2565 23.111 9.66344 22.8437 9.39223 22.6774C8.59137 22.8848 7.7502 22.8789 6.95232 22.6604C3.76165 23.6484 2.2164 24.6978 1.47285 25.5266C1.84856 25.786 2.26579 25.9795 2.70657 26.0986C3.64848 26.3663 5.26752 26.5135 7.63126 25.6948Z" fill="black"/>
<path d="M29.3238 5.77042H34.1766C34.2725 5.77042 34.3644 5.73235 34.4321 5.66459C34.4999 5.59682 34.538 5.50492 34.538 5.40909C34.538 5.31326 34.4999 5.22135 34.4321 5.15359C34.3644 5.08583 34.2725 5.04776 34.1766 5.04776H29.3238C29.228 5.04776 29.1361 5.08583 29.0683 5.15359C29.0005 5.22135 28.9625 5.31326 28.9625 5.40909C28.9625 5.50492 29.0005 5.59682 29.0683 5.66459C29.1361 5.73235 29.228 5.77042 29.3238 5.77042Z" fill="black"/>
<path d="M27.0692 5.77042H27.7155C27.8114 5.77042 27.9033 5.73235 27.971 5.66459C28.0388 5.59682 28.0769 5.50492 28.0769 5.40909C28.0769 5.31326 28.0388 5.22135 27.971 5.15359C27.9033 5.08583 27.8114 5.04776 27.7155 5.04776H27.0692C26.9734 5.04776 26.8814 5.08583 26.8137 5.15359C26.7459 5.22135 26.7079 5.31326 26.7079 5.40909C26.7079 5.50492 26.7459 5.59682 26.8137 5.66459C26.8814 5.73235 26.9734 5.77042 27.0692 5.77042Z" fill="black"/>
<path d="M27.457 31.5909C27.457 31.6867 27.495 31.7786 27.5628 31.8464C27.6306 31.9142 27.7225 31.9522 27.8183 31.9522H35.32C35.4159 31.9522 35.5078 31.9142 35.5755 31.8464C35.6433 31.7786 35.6814 31.6867 35.6814 31.5909C35.6814 31.4951 35.6433 31.4032 35.5755 31.3354C35.5078 31.2677 35.4159 31.2296 35.32 31.2296H27.8183C27.7225 31.2296 27.6306 31.2677 27.5628 31.3354C27.495 31.4032 27.457 31.4951 27.457 31.5909Z" fill="black"/>
<path d="M26.2066 31.5909C26.2066 31.4951 26.1686 31.4032 26.1008 31.3354C26.033 31.2677 25.9411 31.2296 25.8453 31.2296H16.6676C16.5717 31.2296 16.4798 31.2677 16.4121 31.3354C16.3443 31.4032 16.3062 31.4951 16.3062 31.5909C16.3062 31.6867 16.3443 31.7786 16.4121 31.8464C16.4798 31.9142 16.5717 31.9522 16.6676 31.9522H25.8453C25.9411 31.9522 26.033 31.9142 26.1008 31.8464C26.1686 31.7786 26.2066 31.6867 26.2066 31.5909Z" fill="black"/>
<path d="M34.1766 28.456C34.2725 28.456 34.3644 28.4179 34.4321 28.3501C34.4999 28.2824 34.538 28.1905 34.538 28.0946C34.538 27.9988 34.4999 27.9069 34.4321 27.8391C34.3644 27.7714 34.2725 27.7333 34.1766 27.7333H32.5928C32.497 27.7333 32.4051 27.7714 32.3373 27.8391C32.2695 27.9069 32.2315 27.9988 32.2315 28.0946C32.2315 28.1905 32.2695 28.2824 32.3373 28.3501C32.4051 28.4179 32.497 28.456 32.5928 28.456H34.1766Z" fill="black"/>
<path d="M30.5973 27.7333H22.1517C22.0558 27.7333 21.9639 27.7714 21.8962 27.8391C21.8284 27.9069 21.7903 27.9988 21.7903 28.0946C21.7903 28.1905 21.8284 28.2824 21.8962 28.3501C21.9639 28.4179 22.0558 28.456 22.1517 28.456H30.5973C30.6931 28.456 30.785 28.4179 30.8528 28.3501C30.9205 28.2824 30.9586 28.1905 30.9586 28.0946C30.9586 27.9988 30.9205 27.9069 30.8528 27.8391C30.785 27.7714 30.6931 27.7333 30.5973 27.7333Z" fill="black"/>
<path d="M35.8426 24.033H29.106C29.0102 24.033 28.9183 24.0711 28.8505 24.1389C28.7827 24.2066 28.7447 24.2985 28.7447 24.3943C28.7447 24.4902 28.7827 24.5821 28.8505 24.6498C28.9183 24.7176 29.0102 24.7557 29.106 24.7557H35.8426C35.9384 24.7557 36.0303 24.7176 36.0981 24.6498C36.1658 24.5821 36.2039 24.4902 36.2039 24.3943C36.2039 24.2985 36.1658 24.2066 36.0981 24.1389C36.0303 24.0711 35.9384 24.033 35.8426 24.033Z" fill="black"/>
</svg>
